<svg width="92" height="32" viewBox="0 0 92 32" fill="none" xmlns="http://www.w3.org/2000/svg">
<g clip-path="url(#clip0_517_2323)">
<path d="M28.9141 13.6805H20.2112C19.7139 13.6805 19.335 14.1881 19.5126 14.6604L21.6084 20.0677C21.7031 20.3039 21.5137 20.5636 21.2532 20.5518L18.5772 20.3865C18.4588 20.3747 18.3404 20.4337 18.2693 20.54L16.1854 23.4798C16.0788 23.6451 15.8538 23.7041 15.6762 23.586L12.5976 21.4963C12.4792 21.4137 12.3134 21.4137 12.195 21.4963L7.93238 24.3771C7.66004 24.566 7.29298 24.3062 7.38771 23.9875L8.57178 19.749C8.61914 19.5719 8.53626 19.3948 8.35865 19.3239L6.09707 18.403C5.8721 18.3086 5.80105 18.037 5.95498 17.8481L7.95606 15.3924C8.05079 15.2743 8.06263 15.0972 7.9679 14.9674L6.28652 12.5471C6.13259 12.3227 6.27468 12.0158 6.55886 11.9922L9.16382 11.7914C9.35327 11.7796 9.5072 11.6143 9.49536 11.4136L9.29406 7.77727C9.28222 7.51753 9.54272 7.32863 9.79137 7.42308L13.0239 8.7572C13.166 8.81623 13.3317 8.78081 13.4265 8.66275L15.6525 6.1834C15.8301 5.9827 16.1498 6.04173 16.2564 6.27786L17.5944 9.71352C17.772 10.1385 18.3049 10.292 18.6838 10.0087L23.9174 6.12437C24.5094 5.68754 24.1305 4.74302 23.3964 4.84928L19.9507 5.30973C19.7849 5.33333 19.631 5.23889 19.5718 5.08541L17.7602 0.445495C17.5589 -0.0385678 16.9313 -0.156632 16.5761 0.232979L12.6331 4.49509C12.5266 4.60135 12.3727 4.63677 12.2306 4.57773L7.04433 2.39355C6.58254 2.20465 6.07339 2.52342 6.04971 3.0311L5.86026 8.36759C5.84841 8.55649 5.70633 8.69817 5.52872 8.70997L0.792427 9.01694C0.235913 9.05236 -0.060105 9.6781 0.247754 10.1267L3.39739 14.7549C3.49211 14.8847 3.48027 15.0618 3.3737 15.1917L0.176709 18.8517C-0.14299 19.2177 -0.0127421 19.7844 0.437205 19.9733L4.10783 21.5553C4.2736 21.6262 4.35648 21.8033 4.30912 21.9686L1.96466 31.1067C1.79889 31.7561 2.53301 32.2519 3.07769 31.8623L11.8872 25.5577C12.0056 25.4751 12.1714 25.4633 12.3016 25.5577L16.3156 28.3676C16.6472 28.6038 17.0971 28.5093 17.3221 28.1787L19.8323 24.3416C19.9034 24.2236 20.0454 24.1646 20.1757 24.1882L26.1789 24.9084C26.6644 24.9792 27.1499 24.5778 26.9723 24.1291L24.4739 17.6828C24.4028 17.5057 24.4739 17.3168 24.687 17.2106L29.2457 15.0618C29.9206 14.7194 29.6838 13.6805 28.9141 13.6805Z" fill="#566B76"/>
<path d="M91.3495 13.6925H84.5884C84.4582 13.6925 84.3398 13.7987 84.3398 13.9404V16.9274C84.3398 17.0573 84.4463 17.1754 84.5884 17.1754H87.4776C87.6197 17.1754 87.7262 17.2816 87.7262 17.4233C87.7025 18.9581 87.3828 21.7208 84.5884 21.7208C82.3032 21.7208 81.3914 18.9699 81.3914 15.7468C81.3914 11.9215 82.3387 9.56025 84.4582 9.56025C85.9975 9.56025 86.5066 10.859 86.6487 11.343C86.6842 11.4493 86.779 11.5201 86.8855 11.5201H90.4022C90.5443 11.5201 90.6627 11.402 90.6509 11.2604C90.5088 9.34773 88.8629 5.99472 84.5292 5.99472C81.498 5.99472 78.6562 7.83651 77.7445 12.382V6.5142C77.7445 6.44336 77.6853 6.39613 77.6261 6.39613H73.9081C73.8371 6.39613 73.7897 6.45517 73.7897 6.5142V16.9747C73.7897 17.1045 73.6121 17.14 73.5529 17.0219L68.6745 6.45517C68.6508 6.40794 68.6153 6.38433 68.5679 6.38433H65.2762C65.2052 6.38433 65.1578 6.44336 65.1578 6.50239V12.3702C63.9382 8.65116 60.6228 5.98291 56.3128 5.98291C51.5055 5.98291 47.9414 9.30051 47.1244 13.7043H40.387C40.316 13.7043 40.2686 13.7633 40.2686 13.8224V17.0573C40.2686 17.1282 40.3278 17.1754 40.387 17.1754H43.5248C43.5959 17.1754 43.6432 17.2344 43.6432 17.2934C43.6314 18.7929 43.3709 21.709 40.4936 21.709C38.2083 21.709 37.2966 18.9581 37.2966 15.735C37.2966 11.9097 38.2439 9.54844 40.3633 9.54844C41.9974 9.54844 42.471 11.0242 42.5776 11.4139C42.5894 11.4729 42.6368 11.5083 42.696 11.5083H46.4376C46.5087 11.5083 46.5679 11.4493 46.556 11.3784C46.485 9.48941 44.8628 5.98291 40.4225 5.98291C36.7401 5.98291 33.3418 8.69838 33.3418 15.6996C33.3418 20.5166 35.2363 25.2746 40.4818 25.2746C44.3655 25.2746 46.8521 22.2757 47.3967 18.6748C48.569 22.5119 51.9199 25.2746 56.3128 25.2746C60.5518 25.2746 63.9264 22.5945 65.1578 18.8519V24.7787C65.1578 24.8495 65.217 24.8968 65.2762 24.8968H68.9942C69.0653 24.8968 69.1126 24.8377 69.1126 24.7787V14.4835C69.1126 14.3536 69.2902 14.3182 69.3494 14.4363L74.2278 24.8377C74.2515 24.885 74.287 24.9086 74.3344 24.9086H77.6261C77.6971 24.9086 77.7445 24.8495 77.7445 24.7905V18.9109C78.4668 22.441 80.5152 25.2982 84.5766 25.2982C89.005 25.2982 91.61 21.4139 91.61 17.1636V13.9758C91.5981 13.7987 91.4797 13.6925 91.3495 13.6925ZM56.2891 21.4139C53.1632 21.4139 50.9963 19.0172 50.9963 15.6287C50.9963 12.2403 53.1632 9.8436 56.2891 9.8436C59.4032 9.8436 61.5819 12.2403 61.5819 15.6287C61.5819 19.0172 59.4032 21.4139 56.2891 21.4139Z" fill="#566B76"/>
</g>
<defs>
<clipPath id="clip0_517_2323">
<rect width="92" height="32" fill="white"/>
</clipPath>
</defs>
</svg>
