<svg width="191" height="449" viewBox="0 0 191 449" fill="none" xmlns="http://www.w3.org/2000/svg">
<g clip-path="url(#clip0_1674_246)">
<path d="M45.2795 286.192C44.2022 286.192 43.2635 285.968 42.4635 285.52C41.6635 285.061 41.0448 284.411 40.6075 283.568C40.1808 282.715 39.9675 281.717 39.9675 280.576C39.9675 279.413 40.1968 278.411 40.6555 277.568C41.1248 276.715 41.7702 276.064 42.5915 275.616C43.4128 275.168 44.3408 274.944 45.3755 274.944C46.7942 274.944 47.9408 275.259 48.8155 275.888C49.7008 276.517 50.2608 277.408 50.4955 278.56H47.9195C47.7488 278.027 47.4608 277.621 47.0555 277.344C46.6502 277.056 46.0955 276.912 45.3915 276.912C44.5062 276.912 43.7862 277.227 43.2315 277.856C42.6875 278.485 42.4155 279.397 42.4155 280.592C42.4155 281.808 42.6822 282.725 43.2155 283.344C43.7595 283.963 44.5382 284.272 45.5515 284.272C46.3195 284.272 46.9382 284.069 47.4075 283.664C47.8875 283.248 48.1702 282.672 48.2555 281.936H44.8955V280.048H50.7035L50.6875 286H48.5435V283.888C48.3622 284.581 47.9942 285.141 47.4395 285.568C46.8848 285.984 46.1648 286.192 45.2795 286.192ZM56.0017 286.192C55.1271 286.192 54.3751 286.011 53.7457 285.648C53.1164 285.285 52.6364 284.784 52.3057 284.144C51.9751 283.493 51.8097 282.752 51.8097 281.92C51.8097 281.067 51.9804 280.309 52.3217 279.648C52.6737 278.976 53.1644 278.459 53.7937 278.096C54.4337 277.723 55.1644 277.536 55.9857 277.536C56.8284 277.536 57.5591 277.717 58.1777 278.08C58.7964 278.443 59.2711 278.955 59.6017 279.616C59.9324 280.277 60.0977 281.035 60.0977 281.888L60.0817 282.496H54.1617C54.2897 283.797 54.9244 284.448 56.0657 284.448C56.8124 284.448 57.3084 284.16 57.5537 283.584H59.9057C59.7031 284.352 59.2604 284.981 58.5777 285.472C57.8951 285.952 57.0364 286.192 56.0017 286.192ZM57.6817 281.04C57.6284 280.496 57.4524 280.069 57.1537 279.76C56.8657 279.44 56.4764 279.28 55.9857 279.28C55.5164 279.28 55.1271 279.429 54.8177 279.728C54.5084 280.016 54.3004 280.453 54.1937 281.04H57.6817ZM66.8532 281.296C66.8532 280.101 66.3519 279.504 65.3492 279.504C64.8906 279.504 64.5119 279.659 64.2132 279.968C63.9252 280.277 63.7812 280.715 63.7812 281.28V286H61.4132V277.728H63.5412V278.896C64.0746 277.989 64.9546 277.536 66.1812 277.536C67.0879 277.536 67.8186 277.803 68.3732 278.336C68.9386 278.869 69.2212 279.669 69.2212 280.736V286H66.8532V281.296ZM74.658 286.192C73.7833 286.192 73.0313 286.011 72.402 285.648C71.7727 285.285 71.2927 284.784 70.962 284.144C70.6313 283.493 70.466 282.752 70.466 281.92C70.466 281.067 70.6367 280.309 70.978 279.648C71.33 278.976 71.8207 278.459 72.45 278.096C73.09 277.723 73.8207 277.536 74.642 277.536C75.4847 277.536 76.2153 277.717 76.834 278.08C77.4527 278.443 77.9273 278.955 78.258 279.616C78.5887 280.277 78.754 281.035 78.754 281.888L78.738 282.496H72.818C72.946 283.797 73.5807 284.448 74.722 284.448C75.4687 284.448 75.9647 284.16 76.21 283.584H78.562C78.3593 284.352 77.9167 284.981 77.234 285.472C76.5513 285.952 75.6927 286.192 74.658 286.192ZM76.338 281.04C76.2847 280.496 76.1087 280.069 75.81 279.76C75.522 279.44 75.1327 279.28 74.642 279.28C74.1727 279.28 73.7833 279.429 73.474 279.728C73.1647 280.016 72.9567 280.453 72.85 281.04H76.338ZM82.1975 279.136C82.4108 278.656 82.7095 278.293 83.0935 278.048C83.4882 277.792 83.9202 277.664 84.3895 277.664C84.6028 277.664 84.7788 277.685 84.9175 277.728V279.792C84.7468 279.771 84.5708 279.76 84.3895 279.76C83.0882 279.76 82.4375 280.4 82.4375 281.68V286H80.0695V277.728H82.1975V279.136ZM91.2397 284.96C90.6211 285.781 89.7517 286.192 88.6317 286.192C88.0344 286.192 87.5064 286.085 87.0477 285.872C86.5997 285.659 86.2477 285.365 85.9917 284.992C85.7464 284.608 85.6237 284.181 85.6237 283.712C85.6237 282.997 85.8584 282.416 86.3277 281.968C86.8077 281.509 87.5651 281.232 88.5997 281.136L90.9997 280.896V280.48C90.9997 280.064 90.8771 279.749 90.6317 279.536C90.3971 279.312 90.0664 279.2 89.6397 279.2C89.2131 279.2 88.8771 279.291 88.6317 279.472C88.3971 279.643 88.2371 279.909 88.1517 280.272H85.7677C85.8851 279.387 86.2691 278.709 86.9197 278.24C87.5811 277.771 88.4824 277.536 89.6237 277.536C90.8184 277.536 91.7357 277.792 92.3757 278.304C93.0264 278.816 93.3517 279.595 93.3517 280.64V286H91.2397V284.96ZM87.9917 283.6C87.9917 283.909 88.1091 284.165 88.3437 284.368C88.5784 284.571 88.8877 284.672 89.2717 284.672C89.8264 284.672 90.2477 284.501 90.5357 284.16C90.8237 283.819 90.9677 283.36 90.9677 282.784V282.24L89.1757 282.48C88.7917 282.533 88.4984 282.661 88.2957 282.864C88.0931 283.056 87.9917 283.301 87.9917 283.6ZM97.9696 282.992C97.9696 283.365 98.055 283.648 98.2256 283.84C98.407 284.021 98.679 284.112 99.0416 284.112C99.3083 284.112 99.527 284.096 99.6976 284.064V285.968C99.4843 286.021 99.2923 286.053 99.1216 286.064C98.9616 286.085 98.7323 286.096 98.4336 286.096C96.535 286.096 95.5856 285.088 95.5856 283.072V279.664H94.3216V277.728H95.5856V275.392H97.9696V277.728H99.6976V279.664H97.9696V282.992ZM104.689 286.192C103.815 286.192 103.063 286.011 102.433 285.648C101.804 285.285 101.324 284.784 100.993 284.144C100.663 283.493 100.497 282.752 100.497 281.92C100.497 281.067 100.668 280.309 101.009 279.648C101.361 278.976 101.852 278.459 102.481 278.096C103.121 277.723 103.852 277.536 104.673 277.536C105.516 277.536 106.247 277.717 106.865 278.08C107.484 278.443 107.959 278.955 108.289 279.616C108.62 280.277 108.785 281.035 108.785 281.888L108.769 282.496H102.849C102.977 283.797 103.612 284.448 104.753 284.448C105.5 284.448 105.996 284.16 106.241 283.584H108.593C108.391 284.352 107.948 284.981 107.265 285.472C106.583 285.952 105.724 286.192 104.689 286.192ZM106.369 281.04C106.316 280.496 106.14 280.069 105.841 279.76C105.553 279.44 105.164 279.28 104.673 279.28C104.204 279.28 103.815 279.429 103.505 279.728C103.196 280.016 102.988 280.453 102.881 281.04H106.369ZM119.118 275.136C120.377 275.136 121.332 275.424 121.982 276C122.644 276.576 122.974 277.339 122.974 278.288C122.974 278.907 122.825 279.472 122.526 279.984C122.238 280.485 121.801 280.885 121.214 281.184C120.638 281.483 119.929 281.632 119.086 281.632H116.382V286H113.918V275.136H119.118ZM118.702 279.76C119.289 279.76 119.737 279.632 120.046 279.376C120.356 279.12 120.51 278.779 120.51 278.352C120.51 277.456 119.902 277.008 118.686 277.008H116.382V279.76H118.702ZM124.226 277.728H126.61V286H124.226V277.728ZM125.442 276.624C125.037 276.624 124.706 276.496 124.45 276.24C124.194 275.973 124.066 275.648 124.066 275.264C124.066 274.891 124.194 274.576 124.45 274.32C124.706 274.064 125.037 273.936 125.442 273.936C125.837 273.936 126.162 274.064 126.418 274.32C126.674 274.576 126.802 274.891 126.802 275.264C126.802 275.648 126.674 275.973 126.418 276.24C126.162 276.496 125.837 276.624 125.442 276.624ZM133.119 286.192C132.084 286.192 131.279 285.829 130.703 285.104V289.008H128.335V277.728H130.463V279.024C131.039 278.032 131.956 277.536 133.215 277.536C133.876 277.536 134.484 277.707 135.039 278.048C135.604 278.379 136.052 278.875 136.383 279.536C136.714 280.187 136.879 280.965 136.879 281.872C136.879 282.757 136.703 283.525 136.351 284.176C136.01 284.827 135.551 285.328 134.975 285.68C134.399 286.021 133.78 286.192 133.119 286.192ZM130.703 281.872C130.703 282.619 130.874 283.216 131.215 283.664C131.567 284.101 132.02 284.32 132.575 284.32C133.14 284.32 133.599 284.096 133.951 283.648C134.303 283.2 134.479 282.608 134.479 281.872C134.479 281.136 134.303 280.544 133.951 280.096C133.599 279.637 133.14 279.408 132.575 279.408C132.02 279.408 131.567 279.637 131.215 280.096C130.874 280.544 130.703 281.136 130.703 281.872ZM141.97 286.192C141.096 286.192 140.344 286.011 139.714 285.648C139.085 285.285 138.605 284.784 138.274 284.144C137.944 283.493 137.778 282.752 137.778 281.92C137.778 281.067 137.949 280.309 138.29 279.648C138.642 278.976 139.133 278.459 139.762 278.096C140.402 277.723 141.133 277.536 141.954 277.536C142.797 277.536 143.528 277.717 144.146 278.08C144.765 278.443 145.24 278.955 145.57 279.616C145.901 280.277 146.066 281.035 146.066 281.888L146.05 282.496H140.13C140.258 283.797 140.893 284.448 142.034 284.448C142.781 284.448 143.277 284.16 143.522 283.584H145.874C145.672 284.352 145.229 284.981 144.546 285.472C143.864 285.952 143.005 286.192 141.97 286.192ZM143.65 281.04C143.597 280.496 143.421 280.069 143.122 279.76C142.834 279.44 142.445 279.28 141.954 279.28C141.485 279.28 141.096 279.429 140.786 279.728C140.477 280.016 140.269 280.453 140.162 281.04H143.65ZM149.766 286H147.382V274.48H149.766V286ZM151.507 277.728H153.891V286H151.507V277.728ZM152.723 276.624C152.318 276.624 151.987 276.496 151.731 276.24C151.475 275.973 151.347 275.648 151.347 275.264C151.347 274.891 151.475 274.576 151.731 274.32C151.987 274.064 152.318 273.936 152.723 273.936C153.118 273.936 153.443 274.064 153.699 274.32C153.955 274.576 154.083 274.891 154.083 275.264C154.083 275.648 153.955 275.973 153.699 276.24C153.443 276.496 153.118 276.624 152.723 276.624ZM161.056 281.296C161.056 280.101 160.555 279.504 159.552 279.504C159.094 279.504 158.715 279.659 158.416 279.968C158.128 280.277 157.984 280.715 157.984 281.28V286H155.616V277.728H157.744V278.896C158.278 277.989 159.158 277.536 160.384 277.536C161.291 277.536 162.022 277.803 162.576 278.336C163.142 278.869 163.424 279.669 163.424 280.736V286H161.056V281.296ZM168.861 286.192C167.986 286.192 167.234 286.011 166.605 285.648C165.976 285.285 165.496 284.784 165.165 284.144C164.834 283.493 164.669 282.752 164.669 281.92C164.669 281.067 164.84 280.309 165.181 279.648C165.533 278.976 166.024 278.459 166.653 278.096C167.293 277.723 168.024 277.536 168.845 277.536C169.688 277.536 170.418 277.717 171.037 278.08C171.656 278.443 172.13 278.955 172.461 279.616C172.792 280.277 172.957 281.035 172.957 281.888L172.941 282.496H167.021C167.149 283.797 167.784 284.448 168.925 284.448C169.672 284.448 170.168 284.16 170.413 283.584H172.765C172.562 284.352 172.12 284.981 171.437 285.472C170.754 285.952 169.896 286.192 168.861 286.192ZM170.541 281.04C170.488 280.496 170.312 280.069 170.013 279.76C169.725 279.44 169.336 279.28 168.845 279.28C168.376 279.28 167.986 279.429 167.677 279.728C167.368 280.016 167.16 280.453 167.053 281.04H170.541Z" fill="white"/>
<path d="M40.5435 337.136H48.5595V339.104H43.0075V341.472H48.2715V343.44H43.0075V346.032H48.5915V348H40.5435V337.136ZM55.1586 343.648L58.1666 348H55.5426L53.6866 345.104L51.8786 348H49.2386L52.2466 343.648L49.3986 339.728H52.0226L53.6866 342.128L55.3666 339.728H58.0226L55.1586 343.648ZM62.3299 348.192C61.4552 348.192 60.7032 348.011 60.0739 347.648C59.4445 347.285 58.9645 346.784 58.6339 346.144C58.3032 345.493 58.1379 344.752 58.1379 343.92C58.1379 343.067 58.3085 342.309 58.6499 341.648C59.0019 340.976 59.4925 340.459 60.1219 340.096C60.7619 339.723 61.4925 339.536 62.3139 339.536C63.1565 339.536 63.8872 339.717 64.5059 340.08C65.1245 340.443 65.5992 340.955 65.9299 341.616C66.2605 342.277 66.4259 343.035 66.4259 343.888L66.4099 344.496H60.4899C60.6179 345.797 61.2525 346.448 62.3939 346.448C63.1405 346.448 63.6365 346.16 63.8819 345.584H66.2339C66.0312 346.352 65.5885 346.981 64.9059 347.472C64.2232 347.952 63.3645 348.192 62.3299 348.192ZM64.0099 343.04C63.9565 342.496 63.7805 342.069 63.4819 341.76C63.1939 341.44 62.8045 341.28 62.3139 341.28C61.8445 341.28 61.4552 341.429 61.1459 341.728C60.8365 342.016 60.6285 342.453 60.5219 343.04H64.0099ZM71.5334 348.192C70.7227 348.192 69.9974 348.021 69.3574 347.68C68.7174 347.328 68.216 346.827 67.8534 346.176C67.5014 345.515 67.3254 344.747 67.3254 343.872C67.3254 342.987 67.5014 342.219 67.8534 341.568C68.216 340.907 68.7174 340.405 69.3574 340.064C69.9974 339.712 70.7227 339.536 71.5334 339.536C72.6854 339.536 73.5974 339.824 74.2694 340.4C74.9414 340.965 75.3467 341.717 75.4854 342.656H73.0854C73 342.24 72.824 341.931 72.5574 341.728C72.3014 341.525 71.9494 341.424 71.5014 341.424C70.9574 341.424 70.5254 341.637 70.2054 342.064C69.8854 342.491 69.7254 343.083 69.7254 343.84C69.7254 344.608 69.8854 345.211 70.2054 345.648C70.5254 346.085 70.9627 346.304 71.5174 346.304C71.9654 346.304 72.312 346.203 72.5574 346C72.8027 345.797 72.9787 345.483 73.0854 345.056H75.4694C75.32 346.005 74.904 346.768 74.2214 347.344C73.5387 347.909 72.6427 348.192 71.5334 348.192ZM79.1391 344.816C79.1391 345.264 79.2511 345.611 79.4751 345.856C79.6991 346.101 80.0298 346.224 80.4671 346.224C80.9365 346.224 81.3151 346.075 81.6031 345.776C81.8911 345.467 82.0351 345.061 82.0351 344.56V339.728H84.4191V348H82.2911V346.752C81.9925 347.221 81.6245 347.579 81.1871 347.824C80.7498 348.069 80.2645 348.192 79.7311 348.192C78.7818 348.192 78.0511 347.931 77.5391 347.408C77.0271 346.875 76.7711 346.123 76.7711 345.152V339.728H79.1391V344.816ZM89.204 344.992C89.204 345.365 89.2893 345.648 89.46 345.84C89.6413 346.021 89.9133 346.112 90.276 346.112C90.5427 346.112 90.7613 346.096 90.932 346.064V347.968C90.7187 348.021 90.5267 348.053 90.356 348.064C90.196 348.085 89.9667 348.096 89.668 348.096C87.7693 348.096 86.82 347.088 86.82 345.072V341.664H85.556V339.728H86.82V337.392H89.204V339.728H90.932V341.664H89.204V344.992ZM95.9236 348.192C95.049 348.192 94.297 348.011 93.6676 347.648C93.0383 347.285 92.5583 346.784 92.2276 346.144C91.897 345.493 91.7316 344.752 91.7316 343.92C91.7316 343.067 91.9023 342.309 92.2436 341.648C92.5956 340.976 93.0863 340.459 93.7156 340.096C94.3556 339.723 95.0863 339.536 95.9076 339.536C96.7503 339.536 97.481 339.717 98.0996 340.08C98.7183 340.443 99.193 340.955 99.5236 341.616C99.8543 342.277 100.02 343.035 100.02 343.888L100.004 344.496H94.0836C94.2116 345.797 94.8463 346.448 95.9876 346.448C96.7343 346.448 97.2303 346.16 97.4756 345.584H99.8276C99.625 346.352 99.1823 346.981 98.4996 347.472C97.817 347.952 96.9583 348.192 95.9236 348.192ZM97.6036 343.04C97.5503 342.496 97.3743 342.069 97.0756 341.76C96.7876 341.44 96.3983 341.28 95.9076 341.28C95.4383 341.28 95.049 341.429 94.7396 341.728C94.4303 342.016 94.2223 342.453 94.1156 343.04H97.6036ZM109.873 348.192C108.806 348.192 107.873 347.957 107.073 347.488C106.273 347.008 105.654 346.347 105.217 345.504C104.78 344.651 104.561 343.675 104.561 342.576C104.561 341.477 104.78 340.501 105.217 339.648C105.654 338.795 106.273 338.133 107.073 337.664C107.873 337.184 108.806 336.944 109.873 336.944C111.345 336.944 112.497 337.296 113.329 338C114.161 338.704 114.689 339.696 114.913 340.976H112.401C112.134 339.6 111.292 338.912 109.873 338.912C109.02 338.912 108.332 339.237 107.809 339.888C107.286 340.528 107.025 341.429 107.025 342.592C107.025 343.755 107.281 344.651 107.793 345.28C108.316 345.909 109.009 346.224 109.873 346.224C111.27 346.224 112.113 345.536 112.401 344.16H114.913C114.678 345.451 114.145 346.448 113.313 347.152C112.492 347.845 111.345 348.192 109.873 348.192ZM121.537 346.96C120.918 347.781 120.049 348.192 118.929 348.192C118.331 348.192 117.803 348.085 117.345 347.872C116.897 347.659 116.545 347.365 116.289 346.992C116.043 346.608 115.921 346.181 115.921 345.712C115.921 344.997 116.155 344.416 116.625 343.968C117.105 343.509 117.862 343.232 118.897 343.136L121.297 342.896V342.48C121.297 342.064 121.174 341.749 120.929 341.536C120.694 341.312 120.363 341.2 119.937 341.2C119.51 341.2 119.174 341.291 118.929 341.472C118.694 341.643 118.534 341.909 118.449 342.272H116.065C116.182 341.387 116.566 340.709 117.217 340.24C117.878 339.771 118.779 339.536 119.921 339.536C121.115 339.536 122.033 339.792 122.673 340.304C123.323 340.816 123.649 341.595 123.649 342.64V348H121.537V346.96ZM118.289 345.6C118.289 345.909 118.406 346.165 118.641 346.368C118.875 346.571 119.185 346.672 119.569 346.672C120.123 346.672 120.545 346.501 120.833 346.16C121.121 345.819 121.265 345.36 121.265 344.784V344.24L119.473 344.48C119.089 344.533 118.795 344.661 118.593 344.864C118.39 345.056 118.289 345.301 118.289 345.6ZM135.736 343.296C135.736 342.72 135.614 342.288 135.368 342C135.123 341.712 134.782 341.568 134.344 341.568C133.907 341.568 133.555 341.712 133.288 342C133.022 342.288 132.888 342.699 132.888 343.232V348H130.504V343.296C130.504 342.72 130.382 342.288 130.136 342C129.891 341.712 129.55 341.568 129.112 341.568C128.675 341.568 128.323 341.712 128.056 342C127.79 342.277 127.656 342.688 127.656 343.232V348H125.288V339.728H127.416V340.896C127.683 340.448 128.035 340.112 128.472 339.888C128.91 339.653 129.406 339.536 129.96 339.536C130.547 339.536 131.059 339.669 131.496 339.936C131.944 340.192 132.291 340.56 132.536 341.04C132.814 340.539 133.176 340.165 133.624 339.92C134.083 339.664 134.6 339.536 135.176 339.536C136.072 339.536 136.782 339.824 137.304 340.4C137.838 340.976 138.104 341.771 138.104 342.784V348H135.736V343.296ZM144.541 348.192C143.506 348.192 142.701 347.829 142.125 347.104V351.008H139.757V339.728H141.885V341.024C142.461 340.032 143.378 339.536 144.637 339.536C145.298 339.536 145.906 339.707 146.461 340.048C147.026 340.379 147.474 340.875 147.805 341.536C148.136 342.187 148.301 342.965 148.301 343.872C148.301 344.757 148.125 345.525 147.773 346.176C147.432 346.827 146.973 347.328 146.397 347.68C145.821 348.021 145.202 348.192 144.541 348.192ZM142.125 343.872C142.125 344.619 142.296 345.216 142.637 345.664C142.989 346.101 143.442 346.32 143.997 346.32C144.562 346.32 145.021 346.096 145.373 345.648C145.725 345.2 145.901 344.608 145.901 343.872C145.901 343.136 145.725 342.544 145.373 342.096C145.021 341.637 144.562 341.408 143.997 341.408C143.442 341.408 142.989 341.637 142.637 342.096C142.296 342.544 142.125 343.136 142.125 343.872ZM154.88 346.96C154.262 347.781 153.392 348.192 152.272 348.192C151.675 348.192 151.147 348.085 150.688 347.872C150.24 347.659 149.888 347.365 149.632 346.992C149.387 346.608 149.264 346.181 149.264 345.712C149.264 344.997 149.499 344.416 149.968 343.968C150.448 343.509 151.206 343.232 152.24 343.136L154.64 342.896V342.48C154.64 342.064 154.518 341.749 154.272 341.536C154.038 341.312 153.707 341.2 153.28 341.2C152.854 341.2 152.518 341.291 152.272 341.472C152.038 341.643 151.878 341.909 151.792 342.272H149.408C149.526 341.387 149.91 340.709 150.56 340.24C151.222 339.771 152.123 339.536 153.264 339.536C154.459 339.536 155.376 339.792 156.016 340.304C156.667 340.816 156.992 341.595 156.992 342.64V348H154.88V346.96ZM151.632 345.6C151.632 345.909 151.75 346.165 151.984 346.368C152.219 346.571 152.528 346.672 152.912 346.672C153.467 346.672 153.888 346.501 154.176 346.16C154.464 345.819 154.608 345.36 154.608 344.784V344.24L152.816 344.48C152.432 344.533 152.139 344.661 151.936 344.864C151.734 345.056 151.632 345.301 151.632 345.6ZM158.648 339.728H161.032V348H158.648V339.728ZM159.864 338.624C159.459 338.624 159.128 338.496 158.872 338.24C158.616 337.973 158.488 337.648 158.488 337.264C158.488 336.891 158.616 336.576 158.872 336.32C159.128 336.064 159.459 335.936 159.864 335.936C160.259 335.936 160.584 336.064 160.84 336.32C161.096 336.576 161.224 336.891 161.224 337.264C161.224 337.648 161.096 337.973 160.84 338.24C160.584 338.496 160.259 338.624 159.864 338.624ZM165.013 348.272C165.045 348.677 165.189 348.987 165.445 349.2C165.711 349.413 166.133 349.52 166.709 349.52C167.306 349.52 167.759 349.36 168.069 349.04C168.378 348.731 168.533 348.267 168.533 347.648V346.448C168.255 346.864 167.914 347.163 167.509 347.344C167.114 347.525 166.634 347.616 166.069 347.616C165.386 347.616 164.762 347.451 164.197 347.12C163.631 346.789 163.183 346.32 162.853 345.712C162.522 345.093 162.357 344.379 162.357 343.568C162.357 342.757 162.522 342.048 162.853 341.44C163.183 340.821 163.631 340.352 164.197 340.032C164.773 339.701 165.407 339.536 166.101 339.536C166.677 339.536 167.189 339.653 167.637 339.888C168.095 340.123 168.469 340.469 168.757 340.928V339.728H170.917V347.568C170.917 348.645 170.57 349.52 169.877 350.192C169.194 350.864 168.143 351.2 166.725 351.2C165.274 351.2 164.234 350.944 163.605 350.432C162.986 349.92 162.623 349.2 162.517 348.272H165.013ZM164.773 343.568C164.773 344.219 164.949 344.747 165.301 345.152C165.663 345.557 166.117 345.76 166.661 345.76C167.194 345.76 167.637 345.557 167.989 345.152C168.351 344.736 168.533 344.203 168.533 343.552C168.533 342.912 168.351 342.395 167.989 342C167.637 341.595 167.194 341.392 166.661 341.392C166.106 341.392 165.653 341.595 165.301 342C164.949 342.395 164.773 342.917 164.773 343.568ZM178.072 343.296C178.072 342.101 177.571 341.504 176.568 341.504C176.109 341.504 175.731 341.659 175.432 341.968C175.144 342.277 175 342.715 175 343.28V348H172.632V339.728H174.76V340.896C175.293 339.989 176.173 339.536 177.4 339.536C178.307 339.536 179.037 339.803 179.592 340.336C180.157 340.869 180.44 341.669 180.44 342.736V348H178.072V343.296ZM185.621 348.192C184.405 348.192 183.482 347.968 182.853 347.52C182.223 347.061 181.823 346.416 181.653 345.584H183.957C184.138 346.245 184.677 346.576 185.573 346.576C186.053 346.576 186.405 346.501 186.629 346.352C186.853 346.203 186.965 345.995 186.965 345.728C186.965 345.28 186.661 345.003 186.053 344.896L184.277 344.56C183.413 344.4 182.783 344.123 182.389 343.728C182.005 343.323 181.813 342.795 181.813 342.144C181.813 341.664 181.946 341.227 182.213 340.832C182.49 340.437 182.895 340.123 183.429 339.888C183.973 339.653 184.623 339.536 185.381 339.536C186.49 339.536 187.365 339.781 188.005 340.272C188.655 340.763 189.055 341.429 189.205 342.272H186.885C186.831 341.909 186.671 341.632 186.405 341.44C186.138 341.248 185.786 341.152 185.349 341.152C184.933 341.152 184.613 341.232 184.389 341.392C184.165 341.552 184.053 341.755 184.053 342C184.053 342.213 184.122 342.384 184.261 342.512C184.41 342.64 184.677 342.736 185.061 342.8L186.821 343.104C187.717 343.264 188.357 343.547 188.741 343.952C189.135 344.357 189.333 344.901 189.333 345.584C189.333 346.053 189.194 346.485 188.917 346.88C188.65 347.275 188.239 347.595 187.685 347.84C187.13 348.075 186.442 348.192 185.621 348.192Z" fill="white"/>
<path d="M45.2635 413.192C44.1968 413.192 43.2635 412.957 42.4635 412.488C41.6635 412.008 41.0448 411.347 40.6075 410.504C40.1702 409.651 39.9515 408.675 39.9515 407.576C39.9515 406.477 40.1702 405.501 40.6075 404.648C41.0448 403.795 41.6635 403.133 42.4635 402.664C43.2635 402.184 44.1968 401.944 45.2635 401.944C46.7355 401.944 47.8875 402.296 48.7195 403C49.5515 403.704 50.0795 404.696 50.3035 405.976H47.7915C47.5248 404.6 46.6822 403.912 45.2635 403.912C44.4102 403.912 43.7222 404.237 43.1995 404.888C42.6768 405.528 42.4155 406.429 42.4155 407.592C42.4155 408.755 42.6715 409.651 43.1835 410.28C43.7062 410.909 44.3995 411.224 45.2635 411.224C46.6608 411.224 47.5035 410.536 47.7915 409.16H50.3035C50.0688 410.451 49.5355 411.448 48.7035 412.152C47.8822 412.845 46.7355 413.192 45.2635 413.192ZM53.9847 413H51.6007V401.48H53.9847V413ZM59.5821 413.192C58.7715 413.192 58.0408 413.016 57.3901 412.664C56.7395 412.312 56.2275 411.811 55.8541 411.16C55.4808 410.509 55.2941 409.747 55.2941 408.872C55.2941 407.997 55.4808 407.235 55.8541 406.584C56.2275 405.923 56.7395 405.416 57.3901 405.064C58.0408 404.712 58.7715 404.536 59.5821 404.536C60.3928 404.536 61.1235 404.712 61.7741 405.064C62.4248 405.416 62.9368 405.923 63.3101 406.584C63.6835 407.235 63.8701 407.997 63.8701 408.872C63.8701 409.747 63.6835 410.509 63.3101 411.16C62.9368 411.811 62.4248 412.312 61.7741 412.664C61.1235 413.016 60.3928 413.192 59.5821 413.192ZM57.6621 408.872C57.6621 409.619 57.8381 410.211 58.1901 410.648C58.5528 411.085 59.0168 411.304 59.5821 411.304C60.1368 411.304 60.5901 411.085 60.9421 410.648C61.2941 410.211 61.4701 409.619 61.4701 408.872C61.4701 408.115 61.2941 407.517 60.9421 407.08C60.5901 406.643 60.1315 406.424 59.5661 406.424C59.0008 406.424 58.5421 406.643 58.1901 407.08C57.8381 407.517 57.6621 408.115 57.6621 408.872ZM68.6989 413.192C67.4829 413.192 66.5602 412.968 65.9309 412.52C65.3015 412.061 64.9015 411.416 64.7309 410.584H67.0349C67.2162 411.245 67.7549 411.576 68.6509 411.576C69.1309 411.576 69.4829 411.501 69.7069 411.352C69.9309 411.203 70.0429 410.995 70.0429 410.728C70.0429 410.28 69.7389 410.003 69.1309 409.896L67.3549 409.56C66.4909 409.4 65.8615 409.123 65.4669 408.728C65.0829 408.323 64.8909 407.795 64.8909 407.144C64.8909 406.664 65.0242 406.227 65.2909 405.832C65.5682 405.437 65.9735 405.123 66.5069 404.888C67.0509 404.653 67.7015 404.536 68.4589 404.536C69.5682 404.536 70.4429 404.781 71.0829 405.272C71.7335 405.763 72.1335 406.429 72.2829 407.272H69.9629C69.9095 406.909 69.7495 406.632 69.4829 406.44C69.2162 406.248 68.8642 406.152 68.4269 406.152C68.0109 406.152 67.6909 406.232 67.4669 406.392C67.2429 406.552 67.1309 406.755 67.1309 407C67.1309 407.213 67.2002 407.384 67.3389 407.512C67.4882 407.64 67.7549 407.736 68.1389 407.8L69.8989 408.104C70.7949 408.264 71.4349 408.547 71.8189 408.952C72.2135 409.357 72.4109 409.901 72.4109 410.584C72.4109 411.053 72.2722 411.485 71.9949 411.88C71.7282 412.275 71.3175 412.595 70.7629 412.84C70.2082 413.075 69.5202 413.192 68.6989 413.192ZM77.4861 413.192C76.6115 413.192 75.8595 413.011 75.2301 412.648C74.6008 412.285 74.1208 411.784 73.7901 411.144C73.4595 410.493 73.2941 409.752 73.2941 408.92C73.2941 408.067 73.4648 407.309 73.8061 406.648C74.1581 405.976 74.6488 405.459 75.2781 405.096C75.9181 404.723 76.6488 404.536 77.4701 404.536C78.3128 404.536 79.0435 404.717 79.6621 405.08C80.2808 405.443 80.7555 405.955 81.0861 406.616C81.4168 407.277 81.5821 408.035 81.5821 408.888L81.5661 409.496H75.6461C75.7741 410.797 76.4088 411.448 77.5501 411.448C78.2968 411.448 78.7928 411.16 79.0381 410.584H81.3901C81.1875 411.352 80.7448 411.981 80.0621 412.472C79.3795 412.952 78.5208 413.192 77.4861 413.192ZM79.1661 408.04C79.1128 407.496 78.9368 407.069 78.6381 406.76C78.3501 406.44 77.9608 406.28 77.4701 406.28C77.0008 406.28 76.6115 406.429 76.3021 406.728C75.9928 407.016 75.7848 407.453 75.6781 408.04H79.1661ZM91.2594 402.136C92.3154 402.136 93.238 402.36 94.0274 402.808C94.8274 403.245 95.4407 403.875 95.8674 404.696C96.3047 405.517 96.5234 406.477 96.5234 407.576C96.5234 408.675 96.3047 409.635 95.8674 410.456C95.4407 411.267 94.8274 411.896 94.0274 412.344C93.238 412.781 92.3154 413 91.2594 413H86.7154V402.136H91.2594ZM90.9714 411.016C91.974 411.016 92.7367 410.728 93.2594 410.152C93.7927 409.576 94.0594 408.723 94.0594 407.592C94.0594 406.44 93.798 405.576 93.2754 405C92.7527 404.413 91.9847 404.12 90.9714 404.12H89.1794V411.016H90.9714ZM101.814 413.192C100.94 413.192 100.188 413.011 99.5582 412.648C98.9289 412.285 98.4489 411.784 98.1182 411.144C97.7876 410.493 97.6222 409.752 97.6222 408.92C97.6222 408.067 97.7929 407.309 98.1342 406.648C98.4862 405.976 98.9769 405.459 99.6062 405.096C100.246 404.723 100.977 404.536 101.798 404.536C102.641 404.536 103.372 404.717 103.99 405.08C104.609 405.443 105.084 405.955 105.414 406.616C105.745 407.277 105.91 408.035 105.91 408.888L105.894 409.496H99.9742C100.102 410.797 100.737 411.448 101.878 411.448C102.625 411.448 103.121 411.16 103.366 410.584H105.718C105.516 411.352 105.073 411.981 104.39 412.472C103.708 412.952 102.849 413.192 101.814 413.192ZM103.494 408.04C103.441 407.496 103.265 407.069 102.966 406.76C102.678 406.44 102.289 406.28 101.798 406.28C101.329 406.28 100.94 406.429 100.63 406.728C100.321 407.016 100.113 407.453 100.006 408.04H103.494ZM112.49 411.96C111.871 412.781 111.002 413.192 109.882 413.192C109.284 413.192 108.756 413.085 108.298 412.872C107.85 412.659 107.498 412.365 107.242 411.992C106.996 411.608 106.874 411.181 106.874 410.712C106.874 409.997 107.108 409.416 107.578 408.968C108.058 408.509 108.815 408.232 109.85 408.136L112.25 407.896V407.48C112.25 407.064 112.127 406.749 111.882 406.536C111.647 406.312 111.316 406.2 110.89 406.2C110.463 406.2 110.127 406.291 109.882 406.472C109.647 406.643 109.487 406.909 109.402 407.272H107.018C107.135 406.387 107.519 405.709 108.17 405.24C108.831 404.771 109.732 404.536 110.874 404.536C112.068 404.536 112.986 404.792 113.626 405.304C114.276 405.816 114.602 406.595 114.602 407.64V413H112.49V411.96ZM109.242 410.6C109.242 410.909 109.359 411.165 109.594 411.368C109.828 411.571 110.138 411.672 110.522 411.672C111.076 411.672 111.498 411.501 111.786 411.16C112.074 410.819 112.218 410.36 112.218 409.784V409.24L110.426 409.48C110.042 409.533 109.748 409.661 109.546 409.864C109.343 410.056 109.242 410.301 109.242 410.6ZM118.625 413H116.241V401.48H118.625V413ZM123.871 413.192C122.655 413.192 121.732 412.968 121.103 412.52C120.473 412.061 120.073 411.416 119.903 410.584H122.207C122.388 411.245 122.927 411.576 123.823 411.576C124.303 411.576 124.655 411.501 124.879 411.352C125.103 411.203 125.215 410.995 125.215 410.728C125.215 410.28 124.911 410.003 124.303 409.896L122.527 409.56C121.663 409.4 121.033 409.123 120.639 408.728C120.255 408.323 120.063 407.795 120.063 407.144C120.063 406.664 120.196 406.227 120.463 405.832C120.74 405.437 121.145 405.123 121.679 404.888C122.223 404.653 122.873 404.536 123.631 404.536C124.74 404.536 125.615 404.781 126.255 405.272C126.905 405.763 127.305 406.429 127.455 407.272H125.135C125.081 406.909 124.921 406.632 124.655 406.44C124.388 406.248 124.036 406.152 123.599 406.152C123.183 406.152 122.863 406.232 122.639 406.392C122.415 406.552 122.303 406.755 122.303 407C122.303 407.213 122.372 407.384 122.511 407.512C122.66 407.64 122.927 407.736 123.311 407.8L125.071 408.104C125.967 408.264 126.607 408.547 126.991 408.952C127.385 409.357 127.583 409.901 127.583 410.584C127.583 411.053 127.444 411.485 127.167 411.88C126.9 412.275 126.489 412.595 125.935 412.84C125.38 413.075 124.692 413.192 123.871 413.192Z" fill="white"/>
<path d="M45.2635 223.192C44.1968 223.192 43.2635 222.957 42.4635 222.488C41.6635 222.008 41.0448 221.347 40.6075 220.504C40.1702 219.651 39.9515 218.675 39.9515 217.576C39.9515 216.477 40.1702 215.501 40.6075 214.648C41.0448 213.795 41.6635 213.133 42.4635 212.664C43.2635 212.184 44.1968 211.944 45.2635 211.944C46.7355 211.944 47.8875 212.296 48.7195 213C49.5515 213.704 50.0795 214.696 50.3035 215.976H47.7915C47.5248 214.6 46.6822 213.912 45.2635 213.912C44.4102 213.912 43.7222 214.237 43.1995 214.888C42.6768 215.528 42.4155 216.429 42.4155 217.592C42.4155 218.755 42.6715 219.651 43.1835 220.28C43.7062 220.909 44.3995 221.224 45.2635 221.224C46.6608 221.224 47.5035 220.536 47.7915 219.16H50.3035C50.0688 220.451 49.5355 221.448 48.7035 222.152C47.8822 222.845 46.7355 223.192 45.2635 223.192ZM53.7287 216.136C53.9421 215.656 54.2407 215.293 54.6247 215.048C55.0194 214.792 55.4514 214.664 55.9207 214.664C56.1341 214.664 56.3101 214.685 56.4487 214.728V216.792C56.2781 216.771 56.1021 216.76 55.9207 216.76C54.6194 216.76 53.9687 217.4 53.9687 218.68V223H51.6007V214.728H53.7287V216.136ZM61.1892 223.192C60.3146 223.192 59.5626 223.011 58.9332 222.648C58.3039 222.285 57.8239 221.784 57.4932 221.144C57.1626 220.493 56.9972 219.752 56.9972 218.92C56.9972 218.067 57.1679 217.309 57.5092 216.648C57.8612 215.976 58.3519 215.459 58.9812 215.096C59.6212 214.723 60.3519 214.536 61.1732 214.536C62.0159 214.536 62.7466 214.717 63.3652 215.08C63.9839 215.443 64.4586 215.955 64.7892 216.616C65.1199 217.277 65.2852 218.035 65.2852 218.888L65.2692 219.496H59.3492C59.4772 220.797 60.1119 221.448 61.2532 221.448C61.9999 221.448 62.4959 221.16 62.7412 220.584H65.0932C64.8906 221.352 64.4479 221.981 63.7652 222.472C63.0826 222.952 62.2239 223.192 61.1892 223.192ZM62.8692 218.04C62.8159 217.496 62.6399 217.069 62.3412 216.76C62.0532 216.44 61.6639 216.28 61.1732 216.28C60.7039 216.28 60.3146 216.429 60.0052 216.728C59.6959 217.016 59.4879 217.453 59.3812 218.04H62.8692ZM71.8647 221.96C71.2461 222.781 70.3767 223.192 69.2567 223.192C68.6594 223.192 68.1314 223.085 67.6727 222.872C67.2247 222.659 66.8727 222.365 66.6167 221.992C66.3714 221.608 66.2487 221.181 66.2487 220.712C66.2487 219.997 66.4834 219.416 66.9527 218.968C67.4327 218.509 68.1901 218.232 69.2247 218.136L71.6247 217.896V217.48C71.6247 217.064 71.5021 216.749 71.2567 216.536C71.0221 216.312 70.6914 216.2 70.2647 216.2C69.8381 216.2 69.5021 216.291 69.2567 216.472C69.0221 216.643 68.8621 216.909 68.7767 217.272H66.3927C66.5101 216.387 66.8941 215.709 67.5447 215.24C68.2061 214.771 69.1074 214.536 70.2487 214.536C71.4434 214.536 72.3607 214.792 73.0007 215.304C73.6514 215.816 73.9767 216.595 73.9767 217.64V223H71.8647V221.96ZM68.6167 220.6C68.6167 220.909 68.7341 221.165 68.9687 221.368C69.2034 221.571 69.5127 221.672 69.8967 221.672C70.4514 221.672 70.8727 221.501 71.1607 221.16C71.4487 220.819 71.5927 220.36 71.5927 219.784V219.24L69.8007 219.48C69.4167 219.533 69.1234 219.661 68.9207 219.864C68.7181 220.056 68.6167 220.301 68.6167 220.6ZM78.5946 219.992C78.5946 220.365 78.68 220.648 78.8506 220.84C79.032 221.021 79.304 221.112 79.6666 221.112C79.9333 221.112 80.152 221.096 80.3226 221.064V222.968C80.1093 223.021 79.9173 223.053 79.7466 223.064C79.5866 223.085 79.3573 223.096 79.0586 223.096C77.16 223.096 76.2106 222.088 76.2106 220.072V216.664H74.9466V214.728H76.2106V212.392H78.5946V214.728H80.3226V216.664H78.5946V219.992ZM85.3142 223.192C84.4396 223.192 83.6876 223.011 83.0582 222.648C82.4289 222.285 81.9489 221.784 81.6182 221.144C81.2876 220.493 81.1222 219.752 81.1222 218.92C81.1222 218.067 81.2929 217.309 81.6342 216.648C81.9862 215.976 82.4769 215.459 83.1062 215.096C83.7462 214.723 84.4769 214.536 85.2982 214.536C86.1409 214.536 86.8716 214.717 87.4902 215.08C88.1089 215.443 88.5836 215.955 88.9142 216.616C89.2449 217.277 89.4102 218.035 89.4102 218.888L89.3942 219.496H83.4742C83.6022 220.797 84.2369 221.448 85.3782 221.448C86.1249 221.448 86.6209 221.16 86.8662 220.584H89.2182C89.0156 221.352 88.5729 221.981 87.8902 222.472C87.2076 222.952 86.3489 223.192 85.3142 223.192ZM86.9942 218.04C86.9409 217.496 86.7649 217.069 86.4662 216.76C86.1782 216.44 85.7889 216.28 85.2982 216.28C84.8289 216.28 84.4396 216.429 84.1302 216.728C83.8209 217.016 83.6129 217.453 83.5062 218.04H86.9942ZM99.2635 223.192C98.1968 223.192 97.2635 222.957 96.4635 222.488C95.6635 222.008 95.0448 221.347 94.6075 220.504C94.1702 219.651 93.9515 218.675 93.9515 217.576C93.9515 216.477 94.1702 215.501 94.6075 214.648C95.0448 213.795 95.6635 213.133 96.4635 212.664C97.2635 212.184 98.1968 211.944 99.2635 211.944C100.735 211.944 101.887 212.296 102.719 213C103.551 213.704 104.079 214.696 104.303 215.976H101.791C101.525 214.6 100.682 213.912 99.2635 213.912C98.4102 213.912 97.7222 214.237 97.1995 214.888C96.6768 215.528 96.4155 216.429 96.4155 217.592C96.4155 218.755 96.6715 219.651 97.1835 220.28C97.7062 220.909 98.3995 221.224 99.2635 221.224C100.661 221.224 101.503 220.536 101.791 219.16H104.303C104.069 220.451 103.535 221.448 102.703 222.152C101.882 222.845 100.735 223.192 99.2635 223.192ZM109.473 223.192C108.662 223.192 107.931 223.016 107.281 222.664C106.63 222.312 106.118 221.811 105.745 221.16C105.371 220.509 105.185 219.747 105.185 218.872C105.185 217.997 105.371 217.235 105.745 216.584C106.118 215.923 106.63 215.416 107.281 215.064C107.931 214.712 108.662 214.536 109.473 214.536C110.283 214.536 111.014 214.712 111.665 215.064C112.315 215.416 112.827 215.923 113.201 216.584C113.574 217.235 113.761 217.997 113.761 218.872C113.761 219.747 113.574 220.509 113.201 221.16C112.827 221.811 112.315 222.312 111.665 222.664C111.014 223.016 110.283 223.192 109.473 223.192ZM107.553 218.872C107.553 219.619 107.729 220.211 108.081 220.648C108.443 221.085 108.907 221.304 109.473 221.304C110.027 221.304 110.481 221.085 110.833 220.648C111.185 220.211 111.361 219.619 111.361 218.872C111.361 218.115 111.185 217.517 110.833 217.08C110.481 216.643 110.022 216.424 109.457 216.424C108.891 216.424 108.433 216.643 108.081 217.08C107.729 217.517 107.553 218.115 107.553 218.872ZM120.509 218.296C120.509 217.101 120.008 216.504 119.005 216.504C118.547 216.504 118.168 216.659 117.869 216.968C117.581 217.277 117.437 217.715 117.437 218.28V223H115.069V214.728H117.197V215.896C117.731 214.989 118.611 214.536 119.837 214.536C120.744 214.536 121.475 214.803 122.029 215.336C122.595 215.869 122.877 216.669 122.877 217.736V223H120.509V218.296ZM127.548 219.992C127.548 220.365 127.633 220.648 127.804 220.84C127.985 221.021 128.257 221.112 128.62 221.112C128.886 221.112 129.105 221.096 129.276 221.064V222.968C129.062 223.021 128.87 223.053 128.7 223.064C128.54 223.085 128.31 223.096 128.012 223.096C126.113 223.096 125.164 222.088 125.164 220.072V216.664H123.9V214.728H125.164V212.392H127.548V214.728H129.276V216.664H127.548V219.992ZM134.267 223.192C133.393 223.192 132.641 223.011 132.011 222.648C131.382 222.285 130.902 221.784 130.571 221.144C130.241 220.493 130.075 219.752 130.075 218.92C130.075 218.067 130.246 217.309 130.587 216.648C130.939 215.976 131.43 215.459 132.059 215.096C132.699 214.723 133.43 214.536 134.251 214.536C135.094 214.536 135.825 214.717 136.443 215.08C137.062 215.443 137.537 215.955 137.867 216.616C138.198 217.277 138.363 218.035 138.363 218.888L138.347 219.496H132.427C132.555 220.797 133.19 221.448 134.331 221.448C135.078 221.448 135.574 221.16 135.819 220.584H138.171C137.969 221.352 137.526 221.981 136.843 222.472C136.161 222.952 135.302 223.192 134.267 223.192ZM135.947 218.04C135.894 217.496 135.718 217.069 135.419 216.76C135.131 216.44 134.742 216.28 134.251 216.28C133.782 216.28 133.393 216.429 133.083 216.728C132.774 217.016 132.566 217.453 132.459 218.04H135.947ZM145.119 218.296C145.119 217.101 144.618 216.504 143.615 216.504C143.156 216.504 142.778 216.659 142.479 216.968C142.191 217.277 142.047 217.715 142.047 218.28V223H139.679V214.728H141.807V215.896C142.34 214.989 143.22 214.536 144.447 214.536C145.354 214.536 146.084 214.803 146.639 215.336C147.204 215.869 147.487 216.669 147.487 217.736V223H145.119V218.296ZM152.157 219.992C152.157 220.365 152.242 220.648 152.413 220.84C152.594 221.021 152.866 221.112 153.229 221.112C153.496 221.112 153.714 221.096 153.885 221.064V222.968C153.672 223.021 153.48 223.053 153.309 223.064C153.149 223.085 152.92 223.096 152.621 223.096C150.722 223.096 149.773 222.088 149.773 220.072V216.664H148.509V214.728H149.773V212.392H152.157V214.728H153.885V216.664H152.157V219.992Z" fill="white"/>
<rect x="8.5835" y="212" width="4" height="203" fill="white"/>
<circle cx="10.5835" cy="218" r="8" fill="#9579E2" stroke="white" stroke-width="4"/>
<circle cx="10.5835" cy="281" r="8" fill="#693EDF" stroke="white" stroke-width="4"/>
<circle cx="10.5835" cy="344" r="8" fill="#4F1BB7" stroke="white" stroke-width="4"/>
<circle cx="10.5835" cy="407" r="8" fill="#29007A" stroke="white" stroke-width="4"/>
</g>
<defs>
<clipPath id="clip0_1674_246">
<rect width="191" height="449" fill="white" transform="matrix(-1 0 0 1 191 0)"/>
</clipPath>
</defs>
</svg>
