<svg width="108" height="30" viewBox="0 0 108 30" fill="none" xmlns="http://www.w3.org/2000/svg">
<g clip-path="url(#clip0_1677_475)">
<path d="M52.3892 23.9597H53.043L56.4163 28.6141V23.9597H56.9958V29.6104H56.446L52.9687 24.8073V29.6104H52.3892V23.9597Z" fill="#566B76"/>
<path d="M58.438 23.9597H62.1679V24.5248H59.0324V26.3984H62.0936V26.9635H59.0324V29.0602H62.1976V29.6104H58.438V23.9597Z" fill="#566B76"/>
<path d="M65.1997 24.5395H63.0747V23.9744H67.9191V24.5395H65.7941V29.6251H65.1849V24.5395H65.1997Z" fill="#566B76"/>
<path d="M68.645 23.9597H69.2691L70.7552 28.6289L72.2709 23.9597H72.791L74.3068 28.6289L75.8077 23.9597H76.3872L74.5743 29.655H74.0393L72.5087 24.9411L70.9929 29.655H70.4728L68.645 23.9597Z" fill="#566B76"/>
<path d="M76.9224 26.7848C76.9224 24.7773 77.9477 23.8702 79.7607 23.8702C81.5736 23.8702 82.6138 24.7773 82.6138 26.7848C82.6138 28.8071 81.5736 29.6993 79.7607 29.6993C77.9477 29.7142 76.9224 28.8071 76.9224 26.7848ZM82.0046 26.7997C82.0046 25.268 81.2913 24.4502 79.7607 24.4502C78.2301 24.4502 77.5316 25.268 77.5316 26.7997C77.5316 28.3313 78.2301 29.164 79.7607 29.164C81.2913 29.1491 82.0046 28.3313 82.0046 26.7997Z" fill="#566B76"/>
<path d="M86.1054 27.3055H84.4113V29.6104H83.8169V23.9597H86.254C87.5617 23.9597 88.1561 24.4802 88.1561 25.6103C88.1561 26.5917 87.6954 27.1568 86.7146 27.2906L88.0818 29.6104H87.4428L86.1054 27.3055ZM86.2837 26.7553C87.0862 26.7553 87.5765 26.5174 87.5765 25.6252C87.5765 24.7478 87.101 24.5248 86.254 24.5248H84.4113V26.7702H86.2837V26.7553Z" fill="#566B76"/>
<path d="M91.1762 26.6213L90.0468 27.8555V29.6251H89.4673V23.9744H90.0468V27.0972L92.9 23.9744H93.5984L91.5774 26.1752L93.8808 29.6102H93.1972L91.1762 26.6213Z" fill="#566B76"/>
<path d="M94.3696 29.0451L94.6817 28.5841C95.3653 29.0153 96.0191 29.1491 96.7027 29.1491C97.8767 29.1491 98.3819 28.822 98.3819 28.0488C98.3819 27.2458 97.7132 27.1268 96.7027 26.9484C95.4842 26.7402 94.6668 26.532 94.6668 25.387C94.6668 24.3015 95.3653 23.8702 96.7027 23.8702C97.5943 23.8702 98.2184 24.0636 98.6642 24.3758L98.3373 24.8665C97.9361 24.5989 97.3268 24.4204 96.6878 24.4204C95.6773 24.4204 95.2464 24.703 95.2464 25.3721C95.2464 26.0859 95.8408 26.2197 96.8364 26.413C98.0698 26.6361 98.9615 26.8145 98.9615 28.0339C98.9615 29.1491 98.2482 29.6993 96.7027 29.6993C95.8557 29.6845 95.0978 29.5209 94.3696 29.0451Z" fill="#566B76"/>
<path d="M104.871 0.598633C96.936 0.598633 96.5942 4.1526 96.5942 9.17871V21.5061H98.4666V9.17871C98.4666 5.38682 98.318 2.35331 104.871 2.35331C105.57 2.35331 106.194 2.38305 106.759 2.4574V0.672984C106.179 0.628373 105.555 0.598633 104.871 0.598633Z" fill="#566B76"/>
<path d="M12.2466 13.4911V1.01508H14.1636V13.5358C14.1636 17.1343 14.1338 20.1678 20.7169 20.1678C27.2703 20.1678 27.1217 17.1343 27.1217 13.3424V1.01508H28.9941V13.3424C28.9941 18.3686 28.6523 21.9225 20.7169 21.9225C12.737 21.9225 12.2466 18.3686 12.2466 13.4911Z" fill="#566B76"/>
<path d="M48.9082 9.02995V21.506H46.9912V9.00021C46.9912 5.40163 47.0358 2.36812 40.4378 2.36812C33.8844 2.36812 34.033 5.40163 34.033 9.19352V21.5209H32.1606V9.17865C32.1606 4.15254 32.5024 0.598572 40.4378 0.598572C48.4178 0.598572 48.9082 4.16741 48.9082 9.02995Z" fill="#566B76"/>
<path d="M52.3872 1.04474H54.215V21.5061H52.3872V1.04474Z" fill="#566B76"/>
<path d="M57.6431 1.04474H67.2131C71.9684 1.04474 74.1082 3.40909 74.1082 7.60248C74.1082 11.8256 71.9832 14.3981 67.1834 14.3981H59.4709V21.5061H57.6431V1.04474ZM67.2428 12.5691C70.5566 12.5691 72.1913 10.9631 72.1913 7.6917C72.1913 4.43514 70.4229 2.88864 67.1536 2.88864H59.4709V12.5691H67.2428Z" fill="#566B76"/>
<path d="M76.2505 11.2011C76.2505 5.16378 77.9743 0.524292 85.6868 0.524292C93.6667 0.524292 93.9342 5.87755 93.8896 11.5431H78.0932C78.1377 16.5246 79.3711 20.2421 85.8502 20.2421C89.2978 20.2421 90.873 19.3053 92.5522 18.0711L93.6073 19.454C91.7349 20.8369 89.5207 21.9225 85.8502 21.9225C77.7514 21.9225 76.2505 17.2384 76.2505 11.2011ZM78.1377 9.81814H92.0767C91.8835 5.72885 91.6309 2.24923 85.6719 2.24923C79.9358 2.24923 78.3606 5.35709 78.1377 9.81814Z" fill="#566B76"/>
<path d="M0.745031 25.9523C8.68041 25.9523 9.0222 22.3984 9.0222 17.3723V1.01508H7.1498V17.3723C7.1498 21.1641 7.29841 24.1977 0.745031 24.1977C0.492406 24.1977 0.254642 24.1977 0.0317383 24.1828V25.9523C0.269502 25.9523 0.492406 25.9523 0.745031 25.9523Z" fill="#566B76"/>
<path d="M102.569 21.61C101.855 21.61 101.276 21.0301 101.276 20.3163C101.276 19.6025 101.855 19.0226 102.569 19.0226C103.282 19.0226 103.862 19.6025 103.862 20.3163C103.862 21.0301 103.282 21.61 102.569 21.61ZM102.569 19.1862C101.945 19.1862 101.439 19.6917 101.439 20.3163C101.439 20.9408 101.945 21.4464 102.569 21.4464C103.193 21.4464 103.698 20.9408 103.698 20.3163C103.698 19.6917 103.193 19.1862 102.569 19.1862Z" fill="#566B76"/>
<path d="M102.657 20.4798H102.241V21.0449H102.047V19.5579H102.701C103.073 19.5579 103.221 19.7066 103.221 20.004C103.221 20.2419 103.117 20.4055 102.865 20.4501L103.206 21.03H102.998L102.657 20.4798ZM102.701 20.3014C102.909 20.3014 103.013 20.2419 103.013 20.0188C103.013 19.8107 102.894 19.7512 102.686 19.7512H102.226V20.2865H102.701V20.3014Z" fill="#566B76"/>
</g>
<defs>
<clipPath id="clip0_1677_475">
<rect width="106.726" height="29.1901" fill="white" transform="translate(0.492676 0.524292)"/>
</clipPath>
</defs>
</svg>
