<svg width="97" height="20" viewBox="0 0 97 20" fill="none" xmlns="http://www.w3.org/2000/svg">
<path d="M40.7119 4.3418C38.97 4.3418 36.989 5.14658 35.7786 6.75778L35.7794 6.75451L35.7786 6.75533L35.7794 4.59482H31.625V19.6735H35.7786V11.0935C35.7786 9.54921 36.98 7.90782 39.2042 7.90782C40.9231 7.90782 42.7019 9.09948 42.7019 11.0935V19.6735H46.8563V10.3262C46.8563 6.85817 44.3667 4.3418 40.7119 4.3418Z" fill="#566B76"/>
<path d="M76.3849 4.59589L72.6292 14.8671L68.8736 4.59589H64.1279L70.3526 19.6696H74.905L81.1297 4.59589H76.3849Z" fill="#566B76"/>
<path d="M19.2263 9.13823C19.9338 8.19143 21.0607 7.63559 22.4217 7.63559C23.9187 7.63559 25.0546 8.48771 25.6418 9.74549L18.3836 12.7467C18.1854 11.2065 18.581 10.0018 19.2263 9.13823ZM27.2076 15.0378C25.4591 16.3274 24.4601 16.6351 22.8656 16.6351C21.4308 16.6351 20.3073 16.1911 19.5154 15.4124L30.1361 11.0212C29.9043 9.38473 29.2811 7.9229 28.3221 6.81122C26.9267 5.19594 24.8613 4.34137 22.3464 4.34137C17.7784 4.34137 14.334 7.70007 14.334 12.1362C14.334 16.6874 17.7866 19.9302 22.8042 19.9302C25.6156 19.9302 28.49 18.6022 29.8347 17.0506L27.2076 15.0378Z" fill="#566B76"/>
<path d="M13.9364 15.8717H4.49414V0.0853882H0.283203V19.6736H13.9364V15.8717Z" fill="#566B76"/>
<path d="M88.5877 7.88943C86.2677 7.88943 84.5831 9.64183 84.5831 12.1345C84.5831 14.5146 86.3676 16.3796 88.6434 16.3796C90.9642 16.3796 92.6479 14.5791 92.6479 12.1345C92.6479 9.75447 90.8643 7.88943 88.5877 7.88943ZM88.5877 19.9277C84.0443 19.9277 80.4844 16.5543 80.4844 12.1345C80.4844 7.76455 84.0688 4.34137 88.6434 4.34137C93.1868 4.34137 96.7459 7.71476 96.7459 12.1345C96.7459 16.5037 93.1622 19.9277 88.5877 19.9277Z" fill="#566B76"/>
<path d="M56.6035 7.88943C54.2834 7.88943 52.5997 9.64183 52.5997 12.1345C52.5997 14.5146 54.3834 16.3796 56.66 16.3796C58.98 16.3796 60.6637 14.5791 60.6637 12.1345C60.6637 9.75447 58.8801 7.88943 56.6035 7.88943ZM56.6035 19.9277C52.06 19.9277 48.501 16.5543 48.501 12.1345C48.501 7.76455 52.0846 4.34137 56.66 4.34137C61.2026 4.34137 64.7625 7.71476 64.7625 12.1345C64.7625 16.5037 61.178 19.9277 56.6035 19.9277Z" fill="#566B76"/>
</svg>
