<svg width="111" height="24" viewBox="0 0 111 24" fill="none" xmlns="http://www.w3.org/2000/svg">
<g clip-path="url(#clip0_52_14)">
<path d="M0 1C0 0.447716 0.447715 0 1 0H24V24H1C0.447716 24 0 23.5523 0 23V1Z" fill="#E73879"/>
<path d="M12 16C14.2091 16 16 14.2091 16 12C16 9.79086 14.2091 8 12 8C9.79086 8 8 9.79086 8 12C8 14.2091 9.79086 16 12 16Z" fill="white"/>
<path d="M24 0.5H110C110.276 0.5 110.5 0.723859 110.5 1V23C110.5 23.2761 110.276 23.5 110 23.5H24V0.5Z" fill="white"/>
<path d="M24 0.5H110C110.276 0.5 110.5 0.723859 110.5 1V23C110.5 23.2761 110.276 23.5 110 23.5H24V0.5Z" stroke="#E73879"/>
<path d="M33.7417 8.72727H35.354L37.5131 13.9972H37.5983L39.7574 8.72727H41.3696V16H40.1054V11.0036H40.0379L38.028 15.9787H37.0834L35.0734 10.9929H35.0059V16H33.7417V8.72727ZM44.7382 16H43.3319L45.8923 8.72727H47.5187L50.0827 16H48.6764L46.7339 10.2188H46.6771L44.7382 16ZM44.7844 13.1484H48.6196V14.2067H44.7844V13.1484ZM52.0406 16V8.72727H54.7678C55.3266 8.72727 55.7953 8.82434 56.1741 9.01847C56.5553 9.21259 56.8429 9.48485 57.037 9.83523C57.2335 10.1832 57.3318 10.5893 57.3318 11.0533C57.3318 11.5196 57.2323 11.9245 57.0335 12.2678C56.837 12.6087 56.547 12.8726 56.1634 13.0597C55.7799 13.2443 55.3088 13.3366 54.7501 13.3366H52.8076V12.2429H54.5725C54.8992 12.2429 55.1668 12.1979 55.3751 12.108C55.5834 12.0156 55.7373 11.8819 55.8367 11.7067C55.9385 11.5291 55.9894 11.3113 55.9894 11.0533C55.9894 10.7952 55.9385 10.575 55.8367 10.3928C55.7349 10.2081 55.5799 10.0684 55.3715 9.97372C55.1632 9.87666 54.8945 9.82812 54.5654 9.82812H53.358V16H52.0406ZM55.7977 12.7045L57.5981 16H56.1279L54.3595 12.7045H55.7977ZM59.5445 16V8.72727H60.8619V12.0689H60.9507L63.7881 8.72727H65.3968L62.5843 11.9908L65.4216 16H63.8378L61.6681 12.8821L60.8619 13.8338V16H59.5445ZM67.3121 16V8.72727H72.0422V9.83168H68.6295V11.8061H71.7971V12.9105H68.6295V14.8956H72.0706V16H67.3121ZM74.0667 9.83168V8.72727H79.8692V9.83168H77.6214V16H76.3145V9.83168H74.0667ZM83.3053 8.72727V16H81.9878V8.72727H83.3053ZM91.7085 8.72727V16H90.5367L87.1098 11.0462H87.0494V16H85.732V8.72727H86.911L90.3343 13.6847H90.3982V8.72727H91.7085ZM99.0162 11.0497C98.9571 10.858 98.8754 10.6863 98.7712 10.5348C98.6694 10.3809 98.5463 10.2495 98.4019 10.1406C98.2599 10.0317 98.0965 9.95005 97.9118 9.8956C97.7272 9.83878 97.526 9.81037 97.3081 9.81037C96.9175 9.81037 96.5695 9.90862 96.2641 10.1051C95.9587 10.3016 95.7184 10.5904 95.5432 10.9716C95.3704 11.3504 95.284 11.812 95.284 12.3565C95.284 12.9058 95.3704 13.371 95.5432 13.7521C95.7161 14.1333 95.9564 14.4233 96.2641 14.6222C96.5719 14.8187 96.9294 14.9169 97.3366 14.9169C97.7059 14.9169 98.0255 14.8459 98.2954 14.7038C98.5676 14.5618 98.7771 14.3606 98.9239 14.1001C99.0707 13.8374 99.1441 13.5296 99.1441 13.1768L99.4424 13.223H97.468V12.1932H100.419V13.0668C100.419 13.6894 100.286 14.228 100.021 14.6825C99.7561 15.1371 99.3915 15.4875 98.9275 15.7337C98.4635 15.9775 97.9308 16.0994 97.3295 16.0994C96.6595 16.0994 96.0712 15.9491 95.5645 15.6484C95.0603 15.3454 94.6661 14.9157 94.382 14.3594C94.1003 13.8007 93.9594 13.1378 93.9594 12.3707C93.9594 11.7836 94.0423 11.2592 94.208 10.7976C94.3761 10.3359 94.6105 9.94413 94.9111 9.62216C95.2118 9.29782 95.5645 9.05161 95.9694 8.88352C96.3742 8.71307 96.8145 8.62784 97.2904 8.62784C97.6929 8.62784 98.0681 8.68703 98.4161 8.8054C98.7641 8.9214 99.0731 9.08712 99.343 9.30256C99.6152 9.51799 99.8389 9.77367 100.014 10.0696C100.189 10.3655 100.304 10.6922 100.359 11.0497H99.0162Z" fill="#E73879"/>
</g>
<defs>
<clipPath id="clip0_52_14">
<rect width="111" height="24" fill="white"/>
</clipPath>
</defs>
</svg>
