<svg width="93" height="19" viewBox="0 0 93 19" fill="none" xmlns="http://www.w3.org/2000/svg">
<path d="M34.0996 0.601318H37.6204L43.6071 11.4306L49.5936 0.601318H53.0382V18.3959H50.1657V4.75769L44.9162 14.2015H42.2216L36.9722 4.75769V18.3959H34.0996V0.601318Z" fill="#6C8D9D"/>
<path d="M62.3049 18.7136C60.9744 18.7136 59.8051 18.419 58.7968 17.8302C57.7883 17.2413 57.0024 16.4256 56.439 15.3835C55.8754 14.3412 55.5938 13.1465 55.5938 11.7991C55.5938 10.4349 55.8691 9.2274 56.4199 8.17666C56.9707 7.12608 57.7355 6.30406 58.7142 5.71076C59.6929 5.11778 60.8178 4.82104 62.0888 4.82104C63.3513 4.82104 64.4381 5.11973 65.3491 5.71709C66.2598 6.31461 66.9611 7.15141 67.4526 8.22747C67.944 9.30369 68.1898 10.5661 68.1898 12.0152V12.8031H58.4409C58.6189 13.888 59.0573 14.7415 59.7565 15.3643C60.4555 15.9872 61.3389 16.2985 62.4066 16.2985C63.2623 16.2985 63.9996 16.1714 64.6182 15.9172C65.2367 15.663 65.8171 15.2775 66.3596 14.7606L67.8848 16.629C66.3678 18.0188 64.508 18.7136 62.3049 18.7136ZM64.4021 8.15751C63.8004 7.54326 63.0123 7.23598 62.038 7.23598C61.0889 7.23598 60.2944 7.54959 59.6548 8.17666C59.0149 8.80373 58.6103 9.64685 58.4409 10.706H65.4317C65.3469 9.62137 65.0036 8.77207 64.4021 8.15751Z" fill="#6C8D9D"/>
<path d="M71.6717 7.49056H69.0278V5.1391H71.6717V1.24976H74.4425V5.1391H78.459V7.49056H74.4425V13.4517C74.4425 14.443 74.6119 15.1506 74.9509 15.5743C75.2897 15.9981 75.8703 16.2098 76.6923 16.2098C77.0565 16.2098 77.366 16.1952 77.6202 16.1653C77.8744 16.1358 78.154 16.0953 78.459 16.0445V18.3705C78.1454 18.4637 77.7917 18.54 77.3977 18.5994C77.0036 18.6585 76.5906 18.6883 76.1584 18.6883C73.1671 18.6883 71.6717 17.0531 71.6717 13.7822V7.49056Z" fill="#6C8D9D"/>
<path d="M92.8984 18.3958H90.1784V16.5401C89.6954 17.235 89.0809 17.771 88.3354 18.1479C87.5897 18.5248 86.7423 18.7136 85.7933 18.7136C84.624 18.7136 83.5881 18.4148 82.6856 17.8174C81.7832 17.22 81.0734 16.3982 80.5566 15.3517C80.0397 14.3051 79.7812 13.1083 79.7812 11.761C79.7812 10.4052 80.0438 9.20614 80.5693 8.16384C81.0946 7.1217 81.8213 6.30406 82.7492 5.71076C83.677 5.11778 84.7425 4.82104 85.9458 4.82104C86.8525 4.82104 87.6659 4.99701 88.3862 5.34861C89.1064 5.70021 89.7038 6.19822 90.1784 6.84201V5.13888H92.8984V18.3958ZM90.1276 9.77817C89.8309 9.02401 89.3628 8.42892 88.7231 7.99226C88.0832 7.55592 87.344 7.33776 86.5051 7.33776C85.3187 7.33776 84.3739 7.73611 83.6707 8.53248C82.9673 9.32902 82.6157 10.4052 82.6157 11.761C82.6157 13.1253 82.9545 14.2056 83.6325 15.0022C84.3103 15.7987 85.2297 16.1969 86.3907 16.1969C87.2464 16.1969 88.0091 15.9766 88.6786 15.5359C89.3479 15.0955 89.8309 14.5022 90.1276 13.7565V9.77817Z" fill="#6C8D9D"/>
<mask id="mask0_1656_275" style="mask-type:luminance" maskUnits="userSpaceOnUse" x="0" y="0" width="29" height="19">
<path d="M20.2177 2.4336e-07C17.9078 2.4336e-07 16.1021 1.73976 14.4676 3.94979C12.2214 1.08979 10.3429 0 8.09484 0C3.51163 0 0 5.96458 0 12.2777C0 16.2283 1.91124 18.72 5.11253 18.72C7.41661 18.72 9.07371 17.6338 12.0196 12.4843C12.0196 12.4843 13.2476 10.3158 14.0924 8.82195C14.3884 9.29991 14.6995 9.81414 15.0277 10.367L16.4091 12.6909C19.1001 17.1939 20.5994 18.72 23.3162 18.72C26.4349 18.72 28.1705 16.1942 28.1705 12.1615C28.1705 5.55145 24.5797 2.4336e-07 20.2177 2.4336e-07ZM9.77319 11.09C7.38476 14.834 6.55849 15.6732 5.22872 15.6732C3.86022 15.6732 3.04686 14.4717 3.04686 12.3294C3.04686 7.74621 5.332 3.05975 8.0561 3.05975C9.53127 3.05975 10.764 3.91171 12.6523 6.61493C10.8593 9.3651 9.77319 11.09 9.77319 11.09ZM18.7875 10.6187L17.1358 7.86404C16.6888 7.1371 16.2605 6.46913 15.8471 5.85669C17.3357 3.55909 18.5637 2.41423 20.0241 2.41423C23.058 2.41423 25.4852 6.88121 25.4852 12.3681C25.4852 14.4596 24.8001 15.6732 23.3808 15.6732C22.0204 15.6732 21.3705 14.7747 18.7875 10.6187Z" fill="white"/>
</mask>
<g mask="url(#mask0_1656_275)">
<mask id="mask1_1656_275" style="mask-type:luminance" maskUnits="userSpaceOnUse" x="-1" y="-1" width="31" height="21">
<path d="M29.109 -0.936768H-0.933594V19.6556H29.109V-0.936768Z" fill="white"/>
</mask>
<g mask="url(#mask1_1656_275)">
<mask id="mask2_1656_275" style="mask-type:luminance" maskUnits="userSpaceOnUse" x="-1" y="-1" width="31" height="21">
<path d="M29.1148 -0.937256H-0.927734V19.6551H29.1148V-0.937256Z" fill="white"/>
</mask>
<g mask="url(#mask2_1656_275)">
<rect x="-1.01123" y="-0.947754" width="30.1918" height="20.6669" fill="#6C8D9D"/>
</g>
</g>
</g>
</svg>
