<svg width="123" height="36" viewBox="0 0 123 36" fill="none" xmlns="http://www.w3.org/2000/svg">
<g clip-path="url(#clip0_1656_193)">
<path d="M42.5459 17.2733C42.5459 12.5962 45.5498 9.33203 49.7159 9.33203C53.8821 9.33203 56.8861 12.5962 56.8861 17.2733C56.8861 21.9505 53.8821 25.2146 49.7159 25.2146C45.5498 25.2146 42.5459 21.9505 42.5459 17.2733ZM54.1324 17.2733C54.1324 13.9287 52.3087 11.7556 49.7159 11.7556C47.1234 11.7556 45.2994 13.9197 45.2994 17.2733C45.2994 20.6268 47.1234 22.791 49.7159 22.791C52.3087 22.791 54.1324 20.6268 54.1324 17.2733ZM64.6106 25.2146C63.1533 25.2146 62.0805 24.6333 61.3742 23.8016V28.8454H58.7994V13.714H61.3742V14.9124C62.0805 14.0718 63.1533 13.4994 64.6106 13.4994C67.7666 13.4994 69.5636 16.1644 69.5636 19.357C69.5636 22.5497 67.7575 25.2146 64.6106 25.2146ZM61.3026 19.035V19.6968C61.3026 21.7805 62.5006 22.961 64.092 22.961C65.9606 22.961 66.9708 21.5033 66.9708 19.357C66.9708 17.2107 65.9606 15.753 64.092 15.753C62.5006 15.753 61.3026 16.9155 61.3026 19.035ZM76.528 25.2146C73.3095 25.2146 71.0565 22.8357 71.0565 19.357C71.0565 15.8782 73.2917 13.4994 76.4207 13.4994C79.5499 13.4994 81.4185 15.9676 81.4185 19.0618V19.9204H73.5241C73.7207 21.8521 74.874 23.0325 76.528 23.0325C77.7976 23.0325 78.7989 22.3887 79.1475 21.226L81.3559 22.0667C80.5601 24.0431 78.781 25.2235 76.528 25.2235V25.2146ZM76.4028 15.6636C75.0708 15.6636 74.0426 16.4594 73.6581 17.9798H78.8257C78.8078 16.7368 78.03 15.6636 76.4028 15.6636ZM83.3585 24.982V13.714H85.9333V14.9124C86.577 14.1612 87.5873 13.4994 89.0444 13.4994C91.4048 13.4994 92.8173 15.127 92.8173 17.5595V24.982H90.2426V18.3107C90.2426 16.9155 89.6883 15.905 88.2667 15.905C87.1044 15.905 85.9243 16.7635 85.9243 18.3733V24.982H83.3495H83.3585ZM100.363 9.57349H103.474L109.312 24.982H106.541L105.209 21.4586H98.5571L97.2517 24.982H94.5249L100.363 9.57349ZM101.865 12.623L99.4599 19.0618H104.306L101.856 12.623H101.865ZM113.729 9.57349V24.982H110.984V9.57349H113.729Z" fill="#6C8D9D"/>
<path d="M31.272 14.5444C31.6505 13.4084 31.7768 12.2093 31.6611 11.0207C31.5454 9.83218 31.1563 8.6857 30.557 7.65491C29.6632 6.09821 28.2962 4.86757 26.6559 4.1313C25.0155 3.39502 23.1858 3.20569 21.4298 3.58435C20.6411 2.69029 19.6631 1.97505 18.5696 1.49121C17.476 1.00737 16.2984 0.754935 15.0996 0.765452C13.3015 0.765452 11.5559 1.32292 10.0943 2.38527C8.64319 3.43709 7.56012 4.93067 7.00282 6.63465C5.83563 6.87656 4.73152 7.36039 3.76412 8.06513C2.79671 8.76985 1.98704 9.6639 1.39818 10.7052C0.493864 12.2619 0.115321 14.0605 0.304596 15.8486C0.49387 17.6368 1.24045 19.3197 2.44971 20.6554C2.07116 21.7915 1.94498 22.9906 2.06064 24.1791C2.18682 25.3676 2.56538 26.5141 3.16475 27.545C4.05855 29.1016 5.42553 30.3322 7.0659 31.0685C8.70629 31.8048 10.5359 31.9941 12.292 31.6155C13.0806 32.5096 14.0586 33.2247 15.1522 33.7087C16.2457 34.1924 17.4234 34.445 18.6221 34.4344C20.4203 34.4344 22.1763 33.8769 23.6275 32.8146C25.0786 31.7627 26.1617 30.2692 26.7189 28.5546C27.8861 28.3128 28.9902 27.8289 29.9576 27.1241C30.925 26.4195 31.7243 25.5254 32.3236 24.4841C33.228 22.9274 33.6065 21.1288 33.4172 19.3406C33.228 17.5526 32.4813 15.8696 31.272 14.5444ZM18.6959 32.2255C17.0239 32.2255 15.72 31.7102 14.5948 30.7635C14.6474 30.732 14.7315 30.6899 14.7946 30.6478L21.4929 26.7772C21.6612 26.6824 21.7978 26.5458 21.8925 26.3774C21.9871 26.2091 22.0397 26.0198 22.0397 25.8304V16.3851L24.8682 18.0258C24.8682 18.0258 24.8999 18.047 24.9103 18.0575C24.9103 18.0679 24.9208 18.089 24.9314 18.0996V25.9252C24.9314 29.4698 21.9765 32.2361 18.6959 32.2361V32.2255ZM5.07852 26.4405C4.34246 25.1678 4.06906 23.6637 4.33194 22.2122C4.38452 22.2437 4.46865 22.2964 4.53173 22.3279L11.23 26.1985C11.3982 26.2932 11.5875 26.3459 11.7768 26.3459C11.966 26.3459 12.1553 26.2932 12.3235 26.1985L20.5045 21.4759V24.7471C20.5045 24.7471 20.5045 24.7786 20.5045 24.7997C20.5045 24.8103 20.4834 24.8312 20.4728 24.8418L13.7011 28.7545C12.2499 29.5855 10.536 29.8169 8.9166 29.3856C7.29725 28.9544 5.91975 27.8921 5.08905 26.451L5.07852 26.4405ZM3.31197 11.8096C4.04804 10.5264 5.21523 9.5482 6.59272 9.04332V17.0162C6.59272 17.2055 6.6453 17.3948 6.73993 17.563C6.83457 17.7314 6.97127 17.8682 7.13952 17.9628L15.3204 22.6856L12.4918 24.3263C12.4918 24.3263 12.4603 24.3369 12.4497 24.3475C12.4287 24.3475 12.4182 24.3475 12.3972 24.3475L5.62531 20.4346C4.17422 19.5932 3.12269 18.2153 2.69157 16.6059C2.26045 14.9861 2.48126 13.2717 3.31197 11.8201V11.8096ZM26.5823 17.2265L18.4014 12.5038L21.23 10.8735C21.23 10.8735 21.2615 10.863 21.2721 10.8525H21.3246L28.0965 14.7652C29.1375 15.3647 29.9787 16.2484 30.5359 17.3107C31.0933 18.3729 31.3246 19.572 31.2299 20.7607C31.1248 21.9597 30.6833 23.0957 29.9576 24.0423C29.2321 24.9996 28.2542 25.7253 27.1291 26.1355V18.1627C27.1291 17.9733 27.0764 17.784 26.9819 17.6157C26.8872 17.4473 26.7506 17.3107 26.5823 17.2159V17.2265ZM29.4004 12.9771C29.4004 12.9771 29.2636 12.893 29.2005 12.8614L22.5024 8.99074C22.3341 8.89606 22.1448 8.84348 21.9555 8.84348C21.7663 8.84348 21.5665 8.89606 21.4087 8.99074L13.2279 13.7134V10.4422C13.2279 10.4422 13.2279 10.4107 13.2279 10.3897C13.2279 10.3791 13.2489 10.3581 13.2594 10.3476L20.0313 6.43479C21.0723 5.83525 22.2499 5.54074 23.4487 5.59334C24.6474 5.64592 25.8041 6.0351 26.7821 6.71879C27.7599 7.40246 28.5275 8.35963 28.9902 9.46405C29.4528 10.5685 29.5896 11.7886 29.3898 12.9666L29.4004 12.9771ZM11.6821 18.8148L8.85351 17.174C8.85351 17.174 8.82196 17.1529 8.81145 17.1423C8.81145 17.1319 8.80094 17.1108 8.79043 17.1002V9.27472C8.79043 8.07564 9.13741 6.90812 9.77885 5.88784C10.4203 4.87809 11.3351 4.06818 12.4287 3.56331C13.5118 3.05843 14.721 2.8691 15.9093 3.01636C17.0975 3.17413 18.2226 3.65798 19.1374 4.4258C19.0848 4.45736 19.0008 4.49943 18.9376 4.5415L12.2394 8.41223C12.0712 8.50689 11.9345 8.64363 11.8398 8.81192C11.7452 8.98021 11.6926 9.16954 11.6926 9.35887V18.8042L11.6821 18.8148ZM13.2173 15.5015L16.8556 13.3979L20.4939 15.5015V19.7089L16.8556 21.8124L13.2173 19.7089V15.5015Z" fill="#6C8D9D"/>
</g>
<defs>
<clipPath id="clip0_1656_193">
<rect width="122.4" height="35.2" fill="white" transform="translate(0.257812)"/>
</clipPath>
</defs>
</svg>
