<svg width="115" height="24" viewBox="0 0 115 24" fill="none" xmlns="http://www.w3.org/2000/svg">
<g clip-path="url(#clip0_52_8)">
<path d="M0.5 1C0.5 0.447716 0.947715 0 1.5 0H24.5V24H1.5C0.947716 24 0.5 23.5523 0.5 23V1Z" fill="#E73879"/>
<path d="M12.5 16C14.7091 16 16.5 14.2091 16.5 12C16.5 9.79086 14.7091 8 12.5 8C10.2909 8 8.5 9.79086 8.5 12C8.5 14.2091 10.2909 16 12.5 16Z" fill="white"/>
<path d="M24.5 0.5H113.5C113.776 0.5 114 0.723859 114 1V23C114 23.2761 113.776 23.5 113.5 23.5H24.5V0.5Z" fill="white"/>
<path d="M24.5 0.5H113.5C113.776 0.5 114 0.723859 114 1V23C114 23.2761 113.776 23.5 113.5 23.5H24.5V0.5Z" stroke="#E73879"/>
<path d="M39.6602 12.3636C39.6602 13.1473 39.5135 13.8184 39.2199 14.3771C38.9287 14.9335 38.531 15.3596 38.0267 15.6555C37.5248 15.9515 36.9555 16.0994 36.3186 16.0994C35.6818 16.0994 35.1112 15.9515 34.607 15.6555C34.1051 15.3572 33.7074 14.9299 33.4138 14.3736C33.1226 13.8149 32.977 13.1449 32.977 12.3636C32.977 11.58 33.1226 10.91 33.4138 10.3537C33.7074 9.79498 34.1051 9.36766 34.607 9.07173C35.1112 8.7758 35.6818 8.62784 36.3186 8.62784C36.9555 8.62784 37.5248 8.7758 38.0267 9.07173C38.531 9.36766 38.9287 9.79498 39.2199 10.3537C39.5135 10.91 39.6602 11.58 39.6602 12.3636ZM38.3357 12.3636C38.3357 11.812 38.2493 11.3468 38.0764 10.968C37.906 10.5869 37.6692 10.2992 37.3662 10.1051C37.0632 9.90862 36.714 9.81037 36.3186 9.81037C35.9233 9.81037 35.5741 9.90862 35.271 10.1051C34.968 10.2992 34.7301 10.5869 34.5573 10.968C34.3868 11.3468 34.3016 11.812 34.3016 12.3636C34.3016 12.9152 34.3868 13.3816 34.5573 13.7628C34.7301 14.1416 34.968 14.4292 35.271 14.6257C35.5741 14.8198 35.9233 14.9169 36.3186 14.9169C36.714 14.9169 37.0632 14.8198 37.3662 14.6257C37.6692 14.4292 37.906 14.1416 38.0764 13.7628C38.2493 13.3816 38.3357 12.9152 38.3357 12.3636ZM41.9058 16V8.72727H44.6331C45.1918 8.72727 45.6605 8.83144 46.0393 9.03977C46.4205 9.24811 46.7081 9.53456 46.9023 9.89915C47.0988 10.2614 47.197 10.6733 47.197 11.1349C47.197 11.6013 47.0988 12.0156 46.9023 12.3778C46.7058 12.7401 46.4157 13.0253 46.0322 13.2337C45.6487 13.4396 45.1764 13.5426 44.6153 13.5426H42.8078V12.4595H44.4378C44.7645 12.4595 45.032 12.4027 45.2403 12.2891C45.4487 12.1754 45.6025 12.0192 45.702 11.8203C45.8038 11.6214 45.8547 11.393 45.8547 11.1349C45.8547 10.8769 45.8038 10.6496 45.702 10.4531C45.6025 10.2566 45.4475 10.1039 45.2368 9.99503C45.0284 9.88376 44.7597 9.82812 44.4307 9.82812H43.2233V16H41.9058ZM49.3414 16V8.72727H54.0715V9.83168H50.6588V11.8061H53.8264V12.9105H50.6588V14.8956H54.0999V16H49.3414ZM56.4156 16V8.72727H59.1428C59.7016 8.72727 60.1703 8.82434 60.5491 9.01847C60.9303 9.21259 61.2179 9.48485 61.412 9.83523C61.6085 10.1832 61.7068 10.5893 61.7068 11.0533C61.7068 11.5196 61.6073 11.9245 61.4085 12.2678C61.212 12.6087 60.922 12.8726 60.5384 13.0597C60.1549 13.2443 59.6838 13.3366 59.1251 13.3366H57.1826V12.2429H58.9475C59.2742 12.2429 59.5418 12.1979 59.7501 12.108C59.9584 12.0156 60.1123 11.8819 60.2117 11.7067C60.3135 11.5291 60.3644 11.3113 60.3644 11.0533C60.3644 10.7952 60.3135 10.575 60.2117 10.3928C60.1099 10.2081 59.9549 10.0684 59.7465 9.97372C59.5382 9.87666 59.2695 9.82812 58.9404 9.82812H57.733V16H56.4156ZM60.1727 12.7045L61.9731 16H60.5029L58.7345 12.7045H60.1727ZM64.8534 16H63.4472L66.0075 8.72727H67.634L70.1979 16H68.7916L66.8492 10.2188H66.7923L64.8534 16ZM64.8996 13.1484H68.7348V14.2067H64.8996V13.1484ZM70.9573 9.83168V8.72727H76.7599V9.83168H74.512V16H73.2052V9.83168H70.9573ZM80.1959 8.72727V16H78.8785V8.72727H80.1959ZM89.1212 12.3636C89.1212 13.1473 88.9744 13.8184 88.6808 14.3771C88.3896 14.9335 87.9919 15.3596 87.4877 15.6555C86.9858 15.9515 86.4164 16.0994 85.7796 16.0994C85.1427 16.0994 84.5722 15.9515 84.0679 15.6555C83.566 15.3572 83.1683 14.9299 82.8747 14.3736C82.5835 13.8149 82.4379 13.1449 82.4379 12.3636C82.4379 11.58 82.5835 10.91 82.8747 10.3537C83.1683 9.79498 83.566 9.36766 84.0679 9.07173C84.5722 8.7758 85.1427 8.62784 85.7796 8.62784C86.4164 8.62784 86.9858 8.7758 87.4877 9.07173C87.9919 9.36766 88.3896 9.79498 88.6808 10.3537C88.9744 10.91 89.1212 11.58 89.1212 12.3636ZM87.7966 12.3636C87.7966 11.812 87.7102 11.3468 87.5374 10.968C87.3669 10.5869 87.1302 10.2992 86.8271 10.1051C86.5241 9.90862 86.1749 9.81037 85.7796 9.81037C85.3842 9.81037 85.035 9.90862 84.732 10.1051C84.4289 10.2992 84.191 10.5869 84.0182 10.968C83.8477 11.3468 83.7625 11.812 83.7625 12.3636C83.7625 12.9152 83.8477 13.3816 84.0182 13.7628C84.191 14.1416 84.4289 14.4292 84.732 14.6257C85.035 14.8198 85.3842 14.9169 85.7796 14.9169C86.1749 14.9169 86.5241 14.8198 86.8271 14.6257C87.1302 14.4292 87.3669 14.1416 87.5374 13.7628C87.7102 13.3816 87.7966 12.9152 87.7966 12.3636ZM97.3433 8.72727V16H96.1714L92.7446 11.0462H92.6842V16H91.3667V8.72727H92.5457L95.969 13.6847H96.0329V8.72727H97.3433ZM103.731 10.7266C103.698 10.4164 103.558 10.175 103.312 10.0021C103.068 9.82931 102.751 9.7429 102.361 9.7429C102.086 9.7429 101.85 9.78433 101.654 9.86719C101.457 9.95005 101.307 10.0625 101.203 10.2045C101.099 10.3466 101.045 10.5088 101.043 10.6911C101.043 10.8426 101.077 10.974 101.146 11.0852C101.217 11.1965 101.313 11.2912 101.434 11.3693C101.554 11.4451 101.688 11.509 101.835 11.5611C101.982 11.6132 102.13 11.657 102.279 11.6925L102.961 11.8629C103.235 11.9268 103.499 12.0133 103.753 12.1222C104.008 12.2311 104.237 12.3684 104.438 12.5341C104.642 12.6998 104.803 12.8999 104.921 13.1342C105.039 13.3686 105.098 13.6432 105.098 13.9581C105.098 14.3842 104.99 14.7595 104.772 15.0838C104.554 15.4058 104.239 15.6579 103.827 15.8402C103.418 16.0201 102.922 16.1101 102.339 16.1101C101.773 16.1101 101.282 16.0225 100.866 15.8473C100.451 15.6721 100.127 15.4164 99.8925 15.0803C99.6605 14.7441 99.535 14.3345 99.5161 13.8516H100.812C100.831 14.1049 100.909 14.3156 101.047 14.4837C101.184 14.6518 101.363 14.7772 101.583 14.8601C101.805 14.9429 102.054 14.9844 102.329 14.9844C102.615 14.9844 102.866 14.9418 103.081 14.8565C103.299 14.7689 103.47 14.6482 103.593 14.4943C103.716 14.3381 103.779 14.1558 103.781 13.9474C103.779 13.758 103.723 13.6018 103.614 13.4787C103.505 13.3532 103.352 13.2491 103.156 13.1662C102.962 13.081 102.735 13.0052 102.474 12.9389L101.647 12.7259C101.048 12.572 100.574 12.3388 100.226 12.0263C99.8807 11.7114 99.7078 11.2936 99.7078 10.7727C99.7078 10.3442 99.8238 9.96899 100.056 9.64702C100.29 9.32505 100.609 9.07528 101.011 8.89773C101.414 8.7178 101.869 8.62784 102.378 8.62784C102.894 8.62784 103.347 8.7178 103.735 8.89773C104.125 9.07528 104.432 9.32268 104.655 9.63991C104.877 9.95478 104.992 10.317 104.999 10.7266H103.731Z" fill="#E73879"/>
</g>
<defs>
<clipPath id="clip0_52_8">
<rect width="115" height="24" fill="white"/>
</clipPath>
</defs>
</svg>
