<svg width="130" height="29" viewBox="0 0 130 29" fill="none" xmlns="http://www.w3.org/2000/svg">
<path fill-rule="evenodd" clip-rule="evenodd" d="M3.88756 0.696289L11.806 7.99193V7.99026V0.713123H13.3474V8.02458L21.3013 0.696289V9.0144H24.5669V21.0125H21.3113V28.4194L13.3474 21.4225V28.4997H11.806V21.5379L3.89654 28.5043V21.0125H0.630859V9.0144H3.88756V0.696289ZM10.6439 10.537H2.17226V19.4899H3.8946V16.6658L10.6439 10.537ZM5.43786 17.3414V25.1068L11.806 19.4979V11.5573L5.43786 17.3414ZM13.3917 19.4237V11.5499L19.7617 17.3343V21.0125H19.7699V25.0275L13.3917 19.4237ZM21.3113 19.4899H23.0255V10.537H14.6169L21.3113 16.6024V19.4899ZM19.7599 9.0144V4.19854L14.5328 9.0144H19.7599ZM10.6559 9.0144H5.42897V4.19854L10.6559 9.0144Z" fill="#6C8D9D"/>
<path d="M62.6509 8.83151H63.6296V10.8483H62.3627C61.3699 10.8483 60.6295 11.0871 60.1387 11.5662C59.6508 12.0438 59.4055 12.8293 59.4055 13.9211V20.5341H57.4054V8.87754H59.4055V10.7376C59.4055 10.8426 59.4583 10.8944 59.561 10.8944C59.6195 10.8944 59.6637 10.88 59.6951 10.8498C59.7264 10.8195 59.7535 10.7606 59.785 10.6699C60.1701 9.44575 61.1274 8.83292 62.6523 8.83292H62.6509V8.83151ZM75.9551 11.3303C76.4801 12.2639 76.744 13.3889 76.744 14.7037C76.744 16.0185 76.4815 17.1435 75.9551 18.0771C75.4287 19.0107 74.7468 19.7098 73.9094 20.173C73.0721 20.6363 72.1718 20.8679 71.2089 20.8679C69.3116 20.8679 67.9778 20.1055 67.2074 18.5806C67.1489 18.4612 67.0733 18.4007 66.9848 18.4007C66.8964 18.4007 66.8507 18.4453 66.8507 18.536V24.7908H64.8507V8.87604H66.8507V10.8714C66.8507 10.9605 66.895 11.0066 66.9848 11.0066C67.0747 11.0066 67.1475 10.9476 67.2074 10.8267C67.9778 9.30187 69.3116 8.53944 71.2089 8.53944C72.1718 8.53944 73.0721 8.77106 73.9094 9.23429C74.7468 9.69752 75.4273 10.3966 75.9551 11.3303ZM74.7454 14.7037C74.7454 13.3284 74.3788 12.2566 73.6455 11.4871C72.9123 10.7174 71.9465 10.3333 70.7439 10.3333C69.5413 10.3333 68.5754 10.7188 67.8422 11.4871C67.1075 12.2566 66.8394 13.3298 66.8394 14.7037C66.8394 16.0775 67.1089 17.1507 67.8422 17.9202C68.5754 18.6914 69.5427 19.074 70.7439 19.074C71.9451 19.074 72.9123 18.6885 73.6455 17.9202C74.3788 17.1521 74.7454 16.0775 74.7454 14.7037ZM42.2709 11.3475C42.7959 12.2811 43.0598 13.4061 43.0598 14.7209C43.0598 16.0358 42.7973 17.1607 42.2709 18.0943C41.7445 19.028 41.0627 19.7271 40.2253 20.1903C39.3879 20.6535 38.4877 20.8851 37.5247 20.8851C35.6275 20.8851 34.2936 20.1227 33.5232 18.5978C33.4648 18.4784 33.3892 18.4181 33.3006 18.4181C33.2122 18.4181 33.1666 18.4626 33.1666 18.5532V24.8081H31.168V8.89338H33.168V10.8886C33.168 10.9778 33.2122 11.0239 33.3021 11.0239C33.392 11.0239 33.4648 10.9649 33.5247 10.844C34.295 9.31912 35.6289 8.55669 37.5262 8.55669C38.4891 8.55669 39.3893 8.78831 40.2267 9.25154C41.0641 9.71477 41.7446 10.4139 42.2724 11.3475H42.2709ZM41.0598 14.7209C41.0598 13.3456 40.6932 12.274 39.96 11.5043C39.2267 10.7361 38.2594 10.3506 37.0582 10.3506C35.8571 10.3506 34.8899 10.7361 34.1566 11.5043C33.4234 12.2754 33.1538 13.3471 33.1538 14.7209C33.1538 16.0948 33.4234 17.1679 34.1566 17.9376C34.8899 18.7086 35.8556 19.0913 37.0582 19.0913C38.2609 19.0913 39.2267 18.7057 39.96 17.9376C40.6932 17.1693 41.0598 16.0948 41.0598 14.7209ZM53.8704 16.8313H55.9818C55.7007 17.9231 55.1258 18.8683 54.2599 19.6667C53.3925 20.4665 52.1514 20.865 50.5351 20.865C49.3196 20.865 48.2497 20.6147 47.3239 20.1141C46.398 19.6134 45.6833 18.9014 45.1783 17.9735C44.6733 17.0471 44.4223 15.9566 44.4223 14.7008C44.4223 13.4449 44.6676 12.3545 45.1555 11.428C45.6434 10.5017 46.3296 9.78807 47.2112 9.28753C48.0928 8.7869 49.1256 8.53654 50.3111 8.53654C51.4966 8.53654 52.4795 8.78399 53.3012 9.276C54.1244 9.76942 54.7377 10.424 55.1458 11.2367C55.5537 12.0524 55.7563 12.9443 55.7563 13.9154V15.2604H46.5322C46.6048 16.4257 46.9957 17.3535 47.699 18.0397C48.4023 18.7273 49.3482 19.0711 50.5337 19.0711C51.4966 19.0711 52.2355 18.8741 52.7463 18.477C53.2569 18.08 53.6308 17.5319 53.869 16.8284L53.8704 16.8313ZM46.4908 13.5816H53.471C53.471 12.566 53.2114 11.769 52.6921 11.1936C52.1728 10.6196 51.3583 10.3304 50.2469 10.3304C49.2098 10.3304 48.361 10.611 47.7019 11.172C47.0428 11.7316 46.6392 12.5358 46.4908 13.5816ZM78.3574 20.5313H80.3589V4.39209H78.3574V20.5327V20.5313ZM106.486 7.60295H108.824V5.07972H106.486V7.60295ZM115.116 18.795C114.752 18.8324 114.532 18.851 114.46 18.851C114.357 18.851 114.273 18.8208 114.214 18.7604C114.155 18.7014 114.125 18.6194 114.125 18.5129C114.125 18.4396 114.144 18.218 114.182 17.8513C114.217 17.4859 114.237 16.9205 114.237 16.1594V10.5822H117.09L116.528 8.87463H114.238V5.7357H112.239V8.87323H110.063V10.5808H112.239V16.7176C112.239 18.0038 112.551 18.9603 113.173 19.5876C113.795 20.2148 114.743 20.5298 116.019 20.5298H117.575V18.7374H116.796C116.04 18.7374 115.481 18.7561 115.117 18.7935L115.116 18.795ZM127.206 8.87463L123.894 18.6554C123.85 18.7762 123.779 18.933 123.553 18.933C123.326 18.933 123.255 18.7762 123.21 18.6554L119.897 8.87463H117.858L121.694 20.5313H123.051C123.139 20.5313 123.206 20.5399 123.252 20.5543C123.296 20.5687 123.333 20.6061 123.363 20.6665C123.421 20.7557 123.414 20.8909 123.34 21.0693L122.718 22.7726C122.628 22.997 122.458 23.1092 122.207 23.1092C122.118 23.1092 121.911 23.0904 121.585 23.053C121.259 23.0156 120.838 22.997 120.319 22.997H118.695V24.7893H120.829C122.075 24.7893 122.823 24.5765 123.469 24.1506C124.114 23.7249 124.613 22.9739 124.969 21.8979L129.112 9.32203V8.87463H127.209H127.206ZM99.7164 13.2234L96.5819 8.87463H94.381V9.32203L98.1368 14.3656L93.5573 20.0824V20.5298H95.8031L99.4489 15.8444L102.85 20.5298H105.007V20.0824L101.027 14.7023L105.341 9.34508V8.87463H103.096L99.7173 13.2234H99.7164ZM106.699 20.5313H108.7V8.87604H106.699V20.5327V20.5313ZM93.5301 16.8313C93.2476 17.9231 92.6747 18.8683 91.8088 19.6667C90.9411 20.4665 89.7003 20.865 88.0837 20.865C86.8684 20.865 85.7984 20.6147 84.8726 20.1141C83.9451 19.6134 83.2323 18.9014 82.7271 17.9735C82.2235 17.0471 81.9724 15.9566 81.9724 14.7008C81.9724 13.4449 82.2177 12.3545 82.7057 11.428C83.1953 10.5017 83.88 9.78807 84.7617 9.28753C85.6426 8.7869 86.6757 8.53654 87.8629 8.53654C89.05 8.53654 90.0312 8.78399 90.854 9.276C91.6759 9.76942 92.291 10.424 92.6984 11.2367C93.1068 12.0524 93.3092 12.9443 93.3092 13.9154V15.2604H84.0841C84.158 16.4257 84.547 17.3535 85.251 18.0397C85.9541 18.7273 86.9001 19.0711 88.0855 19.0711C89.0482 19.0711 89.7874 18.8741 90.2978 18.477C90.8082 18.08 91.1822 17.5319 91.4189 16.8284H93.5318L93.5301 16.8313ZM84.0894 13.5816H91.0696C91.0696 12.566 90.81 11.769 90.2925 11.1936C89.7724 10.6196 88.9584 10.3304 87.847 10.3304C86.8095 10.3304 85.9612 10.611 85.3021 11.172C84.6429 11.7316 84.2381 12.5358 84.0912 13.5816H84.0894Z" fill="#6C8D9D"/>
</svg>
