<svg width="108" height="32" viewBox="0 0 108 32" fill="none" xmlns="http://www.w3.org/2000/svg">
<path d="M46.4378 10.0755C45.1718 10.0755 44.6029 10.4201 43.4411 11.8062V11.1973C43.4411 10.4681 43.3449 10.396 42.6398 10.396H42.0469C41.3177 10.396 41.2456 10.4922 41.2456 11.1973V22.6392C41.2456 23.3604 41.3418 23.4405 42.0469 23.4405H42.6398C43.3689 23.4405 43.4411 23.3443 43.4411 22.6392V16.5657C43.3495 15.4906 43.5228 14.4094 43.9458 13.4168C44.1964 12.9948 44.5679 12.6577 45.0121 12.4491C45.4564 12.2406 45.953 12.1701 46.4378 12.2469C46.6572 12.2821 46.8722 12.3412 47.0788 12.4232C47.1585 12.4549 47.2474 12.4549 47.3272 12.4232C47.4067 12.3878 47.4738 12.3291 47.5195 12.2549C47.6389 12.0853 47.7434 11.9057 47.8319 11.7181L48.0162 11.3575C48.1197 11.192 48.1955 11.0106 48.2406 10.8207C48.2406 10.412 47.4393 10.0675 46.4458 10.0675" fill="#566B76"/>
<path d="M52.9207 18.008C52.8592 18.8488 52.9993 19.6921 53.3293 20.4679C53.6153 20.8762 53.9954 21.2095 54.4376 21.4397C54.8797 21.6698 55.3709 21.79 55.8693 21.79C56.3678 21.79 56.8589 21.6698 57.3011 21.4397C57.7432 21.2095 58.1234 20.8762 58.4093 20.4679C58.7394 19.6921 58.8795 18.8488 58.818 18.008V11.1973C58.818 10.4682 58.9141 10.3961 59.6192 10.3961H60.2202C60.9413 10.3961 61.0214 10.4922 61.0214 11.1973V18.2484C61.0214 20.1634 60.7089 21.205 59.8275 22.1826C58.762 23.2394 57.322 23.8325 55.8213 23.8325C54.3205 23.8325 52.8805 23.2394 51.815 22.1826C50.9336 21.205 50.6211 20.1634 50.6211 18.2484V11.1973C50.6211 10.4682 50.7092 10.3961 51.4224 10.3961H52.0233C52.7444 10.3961 52.8246 10.4922 52.8246 11.1973L52.9207 18.008Z" fill="#566B76"/>
<path d="M66.8052 16.9101C66.8052 19.8026 68.6 21.7898 71.1881 21.7898C73.7762 21.7898 75.4748 19.7065 75.4748 16.846C75.5094 16.2518 75.4241 15.6568 75.2241 15.0963C75.0241 14.5357 74.7134 14.0211 74.3105 13.5831C73.9076 13.1451 73.4207 12.7925 72.8788 12.5464C72.3369 12.3003 71.751 12.1657 71.156 12.1506C68.6 12.1506 66.8052 14.1057 66.8052 16.9101ZM66.9655 12.2468C67.5069 11.5584 68.2019 11.0063 68.995 10.6348C69.7881 10.2633 70.6572 10.0827 71.5326 10.1074C75.1303 10.1074 77.7744 12.9759 77.7744 16.9101C77.7744 20.8443 75.0982 23.833 71.4685 23.833C70.6 23.8508 69.7396 23.6635 68.9571 23.2862C68.1747 22.9089 67.4923 22.3523 66.9655 21.6616V22.6391C66.9655 23.3602 66.8693 23.4404 66.1642 23.4404H65.5713C64.8421 23.4404 64.77 23.3442 64.77 22.6391V1.32564C64.77 0.604509 64.8662 0.524384 65.5713 0.524384H66.1642C66.8934 0.524384 66.9655 0.620534 66.9655 1.32564V12.2468Z" fill="#566B76"/>
<path d="M86.2763 10.0755C85.0184 10.0755 84.4495 10.4201 83.2796 11.8062V11.1973C83.2796 10.4681 83.1835 10.396 82.4784 10.396H81.8774C81.1563 10.396 81.0762 10.4922 81.0762 11.1973V22.6392C81.0762 23.3604 81.1723 23.4405 81.8774 23.4405H82.4944C83.2155 23.4405 83.2957 23.3443 83.2957 22.6392V16.5657C83.2083 15.4907 83.3814 14.4106 83.8004 13.4168C84.0513 12.9969 84.4216 12.6614 84.864 12.4531C85.3064 12.2447 85.8009 12.1729 86.2843 12.2469C86.5038 12.2821 86.7188 12.3412 86.9254 12.4232C87.0051 12.4549 87.094 12.4549 87.1737 12.4232C87.2541 12.3857 87.3232 12.3277 87.3741 12.2549C87.4909 12.0851 87.5928 11.9055 87.6785 11.7181L87.8708 11.3575C87.9694 11.1904 88.0423 11.0094 88.0872 10.8207C88.0872 10.412 87.2859 10.0675 86.2924 10.0675" fill="#566B76"/>
<path d="M93.2311 22.6393C93.2311 23.3604 93.135 23.4406 92.4299 23.4406H91.8289C91.1078 23.4406 91.0277 23.3444 91.0277 22.6393V11.1973C91.0277 10.4682 91.1238 10.3961 91.8289 10.3961H92.4299C93.151 10.3961 93.2311 10.4922 93.2311 11.1973V22.6393ZM93.7119 5.45231C93.7119 5.76926 93.6179 6.07909 93.4418 6.34262C93.2657 6.60615 93.0154 6.81155 92.7226 6.93284C92.4298 7.05413 92.1076 7.08587 91.7967 7.02403C91.4859 6.9622 91.2003 6.80957 90.9762 6.58546C90.7521 6.36134 90.5995 6.0758 90.5376 5.76494C90.4758 5.45409 90.5075 5.13187 90.6288 4.83905C90.7501 4.54623 90.9555 4.29595 91.219 4.11987C91.4826 3.94378 91.7924 3.84979 92.1094 3.84979C92.5344 3.84979 92.942 4.01863 93.2425 4.31916C93.543 4.61969 93.7119 5.02729 93.7119 5.45231Z" fill="#566B76"/>
<path d="M104 10.7725C104.377 10.3879 104.377 10.3879 104.914 10.3879H105.891C106.46 10.3879 106.692 10.5481 106.692 10.8927C106.692 11.0209 106.572 11.2132 106.316 11.4616L101.789 16.0047L107.502 22.4147C107.718 22.7032 107.846 22.8875 107.846 23.0157C107.846 23.3282 107.59 23.4884 107.045 23.4884H106.051C105.482 23.4884 105.482 23.4884 105.138 23.0798L100.218 17.5351L99.6493 18.104V22.6711C99.6493 23.3923 99.5531 23.4724 98.848 23.4724H98.2471C97.5179 23.4724 97.4458 23.3763 97.4458 22.6711V1.32564C97.4458 0.604509 97.542 0.524384 98.2471 0.524384H98.848C99.5691 0.524384 99.6493 0.620534 99.6493 1.32564V15.2034L104 10.7725Z" fill="#566B76"/>
<mask id="mask0_1677_329" style="mask-type:luminance" maskUnits="userSpaceOnUse" x="10" y="0" width="11" height="10">
<path fill-rule="evenodd" clip-rule="evenodd" d="M15.5993 0.155792C15.5027 0.188814 15.4149 0.243649 15.3429 0.316044L11.0642 4.57874C11.0014 4.64126 10.9516 4.71557 10.9177 4.79738C10.8837 4.87919 10.8662 4.9669 10.8662 5.05548C10.8662 5.14407 10.8837 5.23178 10.9177 5.31359C10.9516 5.3954 11.0014 5.4697 11.0642 5.53223L15.3429 9.79492C15.4054 9.85767 15.4797 9.90746 15.5615 9.94143C15.6433 9.9754 15.7311 9.99288 15.8196 9.99288C15.9082 9.99288 15.9959 9.9754 16.0777 9.94143C16.1596 9.90746 16.2339 9.85767 16.2964 9.79492L20.5671 5.53223C20.6298 5.4697 20.6796 5.3954 20.7136 5.31359C20.7476 5.23178 20.765 5.14407 20.765 5.05548C20.765 4.9669 20.7476 4.87919 20.7136 4.79738C20.6796 4.71557 20.6298 4.64126 20.5671 4.57874L16.2964 0.316044C16.2244 0.243649 16.1366 0.188814 16.04 0.155792H15.5993Z" fill="white"/>
</mask>
<g mask="url(#mask0_1677_329)">
<path fill-rule="evenodd" clip-rule="evenodd" d="M15.5988 0.155792C15.5022 0.188814 15.4144 0.243649 15.3424 0.316044L11.0637 4.57874C11.0009 4.64126 10.9512 4.71557 10.9172 4.79738C10.8832 4.87919 10.8657 4.9669 10.8657 5.05548C10.8657 5.14407 10.8832 5.23178 10.9172 5.31359C10.9512 5.3954 11.0009 5.4697 11.0637 5.53223L15.3424 9.79492C15.4049 9.85767 15.4792 9.90746 15.561 9.94143C15.6429 9.9754 15.7306 9.99288 15.8191 9.99288C15.9077 9.99288 15.9954 9.9754 16.0773 9.94143C16.1591 9.90746 16.2334 9.85767 16.2959 9.79492L20.5666 5.53223C20.6293 5.4697 20.6791 5.3954 20.7131 5.31359C20.7471 5.23178 20.7646 5.14407 20.7646 5.05548C20.7646 4.9669 20.7471 4.87919 20.7131 4.79738C20.6791 4.71557 20.6293 4.64126 20.5666 4.57874L16.2959 0.316044C16.2239 0.243649 16.1361 0.188814 16.0395 0.155792H15.5988Z" fill="#566B76"/>
</g>
<mask id="mask1_1677_329" style="mask-type:luminance" maskUnits="userSpaceOnUse" x="10" y="21" width="11" height="11">
<path fill-rule="evenodd" clip-rule="evenodd" d="M15.3422 21.6137L11.0635 25.8764C11.001 25.9382 10.9514 26.0119 10.9175 26.093C10.8836 26.1741 10.8662 26.2612 10.8662 26.3491C10.8662 26.4371 10.8836 26.5241 10.9175 26.6053C10.9514 26.6864 11.001 26.76 11.0635 26.8219L15.3422 31.0926C15.4003 31.1496 15.4682 31.1957 15.5425 31.2288H16.0954C16.1698 31.1957 16.2376 31.1496 16.2957 31.0926L20.5664 26.8219C20.6289 26.76 20.6785 26.6864 20.7124 26.6053C20.7463 26.5241 20.7637 26.4371 20.7637 26.3491C20.7637 26.2612 20.7463 26.1741 20.7124 26.093C20.6785 26.0119 20.6289 25.9382 20.5664 25.8764L16.2957 21.6137C16.2335 21.5493 16.1587 21.4983 16.076 21.4639C15.9934 21.4294 15.9045 21.4122 15.815 21.4134C15.7267 21.4129 15.6392 21.4304 15.5579 21.4648C15.4766 21.4992 15.4032 21.5499 15.3422 21.6137Z" fill="white"/>
</mask>
<g mask="url(#mask1_1677_329)">
<path fill-rule="evenodd" clip-rule="evenodd" d="M15.3417 21.6137L11.063 25.8764C11.0005 25.9382 10.9509 26.0119 10.917 26.093C10.8832 26.1741 10.8657 26.2612 10.8657 26.3491C10.8657 26.4371 10.8832 26.5241 10.917 26.6053C10.9509 26.6864 11.0005 26.76 11.063 26.8219L15.3417 31.0926C15.3998 31.1496 15.4677 31.1957 15.542 31.2288H16.0949C16.1693 31.1957 16.2371 31.1496 16.2952 31.0926L20.5659 26.8219C20.6284 26.76 20.678 26.6864 20.7119 26.6053C20.7458 26.5241 20.7632 26.4371 20.7632 26.3491C20.7632 26.2612 20.7458 26.1741 20.7119 26.093C20.678 26.0119 20.6284 25.9382 20.5659 25.8764L16.2952 21.6137C16.233 21.5493 16.1582 21.4983 16.0755 21.4639C15.9929 21.4294 15.904 21.4122 15.8145 21.4134C15.7262 21.4129 15.6387 21.4304 15.5574 21.4648C15.4762 21.4992 15.4028 21.5499 15.3417 21.6137Z" fill="#566B76"/>
</g>
<mask id="mask2_1677_329" style="mask-type:luminance" maskUnits="userSpaceOnUse" x="21" y="10" width="11" height="11">
<path fill-rule="evenodd" clip-rule="evenodd" d="M25.9991 10.9486L21.7204 15.2033C21.5974 15.3316 21.5288 15.5024 21.5288 15.6801C21.5288 15.8577 21.5974 16.0285 21.7204 16.1568L25.9991 20.4195C26.0616 20.4823 26.1359 20.532 26.2177 20.566C26.2995 20.6 26.3872 20.6175 26.4758 20.6175C26.5644 20.6175 26.6521 20.6 26.7339 20.566C26.8157 20.532 26.89 20.4823 26.9526 20.4195L31.2153 16.1648C31.2792 16.1022 31.33 16.0274 31.3647 15.9448C31.3994 15.8623 31.4173 15.7736 31.4173 15.6841C31.4173 15.5945 31.3994 15.5059 31.3647 15.4233C31.33 15.3408 31.2792 15.266 31.2153 15.2033L26.9446 10.9406C26.8183 10.8169 26.6485 10.7479 26.4718 10.7483C26.2925 10.7466 26.1197 10.8157 25.9911 10.9406" fill="white"/>
</mask>
<g mask="url(#mask2_1677_329)">
<path fill-rule="evenodd" clip-rule="evenodd" d="M25.9991 10.9486L21.7204 15.2033C21.5974 15.3316 21.5288 15.5024 21.5288 15.6801C21.5288 15.8577 21.5974 16.0285 21.7204 16.1568L25.9991 20.4195C26.0616 20.4823 26.1359 20.532 26.2177 20.566C26.2995 20.6 26.3872 20.6175 26.4758 20.6175C26.5644 20.6175 26.6521 20.6 26.7339 20.566C26.8157 20.532 26.89 20.4823 26.9526 20.4195L31.2153 16.1648C31.2792 16.1022 31.33 16.0274 31.3647 15.9448C31.3994 15.8623 31.4173 15.7736 31.4173 15.6841C31.4173 15.5945 31.3994 15.5059 31.3647 15.4233C31.33 15.3408 31.2792 15.266 31.2153 15.2033L26.9446 10.9406C26.8183 10.8169 26.6485 10.7479 26.4718 10.7483C26.2925 10.7466 26.1197 10.8157 25.9911 10.9406" fill="#566B76"/>
</g>
<mask id="mask3_1677_329" style="mask-type:luminance" maskUnits="userSpaceOnUse" x="7" y="26" width="4" height="5">
<path fill-rule="evenodd" clip-rule="evenodd" d="M9.98815 26.9101L8.08916 28.8251C8.02629 28.877 7.97792 28.9443 7.94875 29.0205C7.91958 29.0966 7.91061 29.179 7.92271 29.2597C7.93481 29.3403 7.96756 29.4165 8.01779 29.4807C8.06802 29.545 8.13401 29.5951 8.20935 29.6263L9.81187 30.4276C9.8794 30.4676 9.95686 30.4877 10.0353 30.4856C10.1138 30.4836 10.1901 30.4594 10.2554 30.4158C10.3207 30.3723 10.3724 30.3112 10.4045 30.2395C10.4366 30.1679 10.4478 30.0886 10.4368 30.0109V27.1024C10.4368 26.878 10.3567 26.7578 10.2365 26.7578C10.1268 26.7702 10.0262 26.8248 9.95609 26.9101" fill="white"/>
</mask>
<g mask="url(#mask3_1677_329)">
<path fill-rule="evenodd" clip-rule="evenodd" d="M9.98863 26.9101L8.08965 28.8251C8.02678 28.877 7.97841 28.9443 7.94924 29.0205C7.92007 29.0966 7.9111 29.179 7.9232 29.2597C7.9353 29.3403 7.96805 29.4165 8.01828 29.4807C8.0685 29.545 8.1345 29.5951 8.20984 29.6263L9.81236 30.4276C9.87989 30.4676 9.95735 30.4877 10.0358 30.4856C10.1143 30.4836 10.1906 30.4594 10.2559 30.4158C10.3212 30.3723 10.3729 30.3112 10.405 30.2395C10.4371 30.1679 10.4483 30.0886 10.4373 30.0109V27.1024C10.4373 26.878 10.3572 26.7578 10.237 26.7578C10.1273 26.7702 10.0267 26.8248 9.95658 26.9101" fill="#566B76"/>
</g>
<mask id="mask4_1677_329" style="mask-type:luminance" maskUnits="userSpaceOnUse" x="21" y="26" width="3" height="5">
<path fill-rule="evenodd" clip-rule="evenodd" d="M21.166 27.1019V29.9543C21.1561 30.0309 21.1678 30.1087 21.1996 30.1791C21.2314 30.2495 21.2821 30.3096 21.3461 30.3528C21.4101 30.3961 21.4848 30.4206 21.562 30.4238C21.6391 30.4271 21.7156 30.4088 21.783 30.371L23.4256 29.5697C23.5003 29.5377 23.5656 29.4869 23.615 29.4223C23.6644 29.3576 23.6963 29.2813 23.7076 29.2007C23.7189 29.1202 23.7091 29.038 23.6794 28.9623C23.6496 28.8866 23.6008 28.8198 23.5377 28.7685L21.6388 26.8775C21.5711 26.7934 21.4734 26.7388 21.3663 26.7253C21.2461 26.7253 21.166 26.8455 21.166 27.0698" fill="white"/>
</mask>
<g mask="url(#mask4_1677_329)">
<path fill-rule="evenodd" clip-rule="evenodd" d="M21.1665 27.1019V29.9543C21.1566 30.0309 21.1683 30.1087 21.2 30.1791C21.2318 30.2495 21.2826 30.3096 21.3466 30.3528C21.4105 30.3961 21.4853 30.4206 21.5624 30.4238C21.6396 30.4271 21.7161 30.4088 21.7835 30.371L23.426 29.5697C23.5008 29.5377 23.5661 29.4869 23.6155 29.4223C23.6649 29.3576 23.6968 29.2813 23.7081 29.2007C23.7193 29.1202 23.7096 29.038 23.6799 28.9623C23.6501 28.8866 23.6013 28.8198 23.5382 28.7685L21.6392 26.8775C21.5716 26.7934 21.4739 26.7388 21.3668 26.7253C21.2466 26.7253 21.1665 26.8455 21.1665 27.0698" fill="#566B76"/>
</g>
<mask id="mask5_1677_329" style="mask-type:luminance" maskUnits="userSpaceOnUse" x="21" y="21" width="6" height="6">
<path fill-rule="evenodd" clip-rule="evenodd" d="M21.8366 21.0287C21.6595 21.0287 21.4895 21.0985 21.3635 21.223C21.2375 21.3475 21.1657 21.5166 21.1636 21.6937V25.5398C21.1657 25.7176 21.2372 25.8876 21.363 26.0134C21.4888 26.1392 21.6588 26.2107 21.8366 26.2128H25.6907C25.7821 26.2171 25.8735 26.203 25.9593 26.1712C26.0451 26.1394 26.1237 26.0906 26.1902 26.0278C26.2568 25.965 26.31 25.8894 26.3467 25.8055C26.3834 25.7217 26.4028 25.6313 26.4038 25.5398V21.6937C26.4017 21.5166 26.3299 21.3475 26.2039 21.223C26.0779 21.0985 25.9079 21.0287 25.7307 21.0287H21.8366Z" fill="white"/>
</mask>
<g mask="url(#mask5_1677_329)">
<path fill-rule="evenodd" clip-rule="evenodd" d="M21.8371 21.0287C21.66 21.0287 21.49 21.0985 21.364 21.223C21.238 21.3475 21.1662 21.5166 21.1641 21.6937V25.5398C21.1661 25.7176 21.2377 25.8876 21.3635 26.0134C21.4893 26.1392 21.6593 26.2107 21.8371 26.2128H25.6912C25.7826 26.2171 25.874 26.203 25.9598 26.1712C26.0456 26.1394 26.1242 26.0906 26.1907 26.0278C26.2573 25.965 26.3105 25.8894 26.3472 25.8055C26.3839 25.7217 26.4033 25.6313 26.4043 25.5398V21.6937C26.4022 21.5166 26.3303 21.3475 26.2043 21.223C26.0784 21.0985 25.9084 21.0287 25.7312 21.0287H21.8371Z" fill="#566B76"/>
</g>
<mask id="mask6_1677_329" style="mask-type:luminance" maskUnits="userSpaceOnUse" x="26" y="7" width="5" height="4">
<path fill-rule="evenodd" clip-rule="evenodd" d="M28.9613 7.99194L27.0543 9.89093C26.7979 10.1473 26.886 10.3637 27.2546 10.3637H30.1151C30.192 10.3716 30.2696 10.3583 30.3395 10.3254C30.4094 10.2925 30.469 10.2411 30.5119 10.1768C30.5547 10.1125 30.5792 10.0377 30.5827 9.96051C30.5862 9.88331 30.5686 9.80661 30.5318 9.73869L29.7305 8.13617C29.6921 8.05281 29.6313 7.98173 29.5549 7.93081C29.4786 7.87989 29.3896 7.85113 29.2978 7.84772C29.1601 7.85387 29.0304 7.91438 28.9373 8.01598" fill="white"/>
</mask>
<g mask="url(#mask6_1677_329)">
<path fill-rule="evenodd" clip-rule="evenodd" d="M28.9633 7.99194L27.0563 9.89093C26.7999 10.1473 26.888 10.3637 27.2566 10.3637H30.1171C30.1939 10.3716 30.2715 10.3583 30.3414 10.3254C30.4113 10.2925 30.4709 10.2411 30.5138 10.1768C30.5567 10.1125 30.5812 10.0377 30.5847 9.96051C30.5882 9.88331 30.5706 9.80661 30.5337 9.73869L29.7325 8.13617C29.694 8.05281 29.6333 7.98173 29.5569 7.93081C29.4805 7.87989 29.3915 7.85113 29.2998 7.84772C29.1621 7.85387 29.0324 7.91438 28.9392 8.01598" fill="#566B76"/>
</g>
<mask id="mask7_1677_329" style="mask-type:luminance" maskUnits="userSpaceOnUse" x="21" y="0" width="3" height="5">
<path fill-rule="evenodd" clip-rule="evenodd" d="M21.1636 1.4215V4.27397C21.1636 4.64255 21.3719 4.73069 21.6363 4.47429L23.5353 2.57531C23.5984 2.52396 23.6472 2.4572 23.677 2.38147C23.7067 2.30575 23.7164 2.22362 23.7051 2.14305C23.6939 2.06247 23.662 1.98617 23.6126 1.92153C23.5632 1.85689 23.4979 1.80609 23.4231 1.77405L21.7805 0.972791C21.7204 0.957149 21.6576 0.954419 21.5963 0.964778C21.5386 0.96421 21.4814 0.976104 21.4288 0.999649C21.3761 1.02319 21.3292 1.05783 21.2911 1.1012C21.2531 1.14456 21.2249 1.19563 21.2084 1.25091C21.1919 1.30619 21.1875 1.36438 21.1956 1.4215" fill="white"/>
</mask>
<g mask="url(#mask7_1677_329)">
<path fill-rule="evenodd" clip-rule="evenodd" d="M21.1641 1.4215V4.27397C21.1641 4.64255 21.3724 4.73069 21.6368 4.47429L23.5358 2.57531C23.5989 2.52396 23.6477 2.4572 23.6774 2.38147C23.7072 2.30575 23.7169 2.22362 23.7056 2.14305C23.6943 2.06247 23.6625 1.98617 23.6131 1.92153C23.5636 1.85689 23.4984 1.80609 23.4236 1.77405L21.781 0.972791C21.7209 0.957149 21.658 0.954419 21.5967 0.964778C21.5391 0.96421 21.4819 0.976104 21.4293 0.999649C21.3766 1.02319 21.3297 1.05783 21.2916 1.1012C21.2536 1.14456 21.2254 1.19563 21.2089 1.25091C21.1924 1.30619 21.188 1.36438 21.1961 1.4215" fill="#566B76"/>
</g>
<mask id="mask8_1677_329" style="mask-type:luminance" maskUnits="userSpaceOnUse" x="1" y="7" width="4" height="4">
<path fill-rule="evenodd" clip-rule="evenodd" d="M1.88144 8.10442L1.08018 9.70693C1.04017 9.77446 1.02004 9.85192 1.02212 9.93039C1.0242 10.0089 1.04841 10.0851 1.09195 10.1505C1.13549 10.2158 1.1966 10.2675 1.26823 10.2996C1.33987 10.3317 1.41911 10.3429 1.49684 10.3319H4.37335C4.74995 10.3319 4.83808 10.1156 4.57367 9.85917L2.67469 7.99224C2.62761 7.94099 2.57074 7.8997 2.50743 7.8708C2.44413 7.8419 2.37567 7.82597 2.30611 7.82397C2.21506 7.82604 2.12655 7.85436 2.05121 7.90553C1.97587 7.95671 1.91692 8.02855 1.88144 8.11243" fill="white"/>
</mask>
<g mask="url(#mask8_1677_329)">
<path fill-rule="evenodd" clip-rule="evenodd" d="M1.88047 8.10442L1.07921 9.70693C1.03919 9.77446 1.01906 9.85192 1.02114 9.93039C1.02322 10.0089 1.04743 10.0851 1.09097 10.1505C1.13452 10.2158 1.19562 10.2675 1.26726 10.2996C1.33889 10.3317 1.41813 10.3429 1.49586 10.3319H4.37238C4.74897 10.3319 4.83711 10.1156 4.57269 9.85917L2.67371 7.99224C2.62663 7.94099 2.56976 7.8997 2.50645 7.8708C2.44315 7.8419 2.37469 7.82597 2.30513 7.82397C2.21408 7.82604 2.12557 7.85436 2.05023 7.90553C1.9749 7.95671 1.91594 8.02855 1.88047 8.11243" fill="#566B76"/>
</g>
<mask id="mask9_1677_329" style="mask-type:luminance" maskUnits="userSpaceOnUse" x="5" y="5" width="6" height="6">
<path fill-rule="evenodd" clip-rule="evenodd" d="M5.94112 5.1637C5.76326 5.16578 5.59328 5.23736 5.4675 5.36313C5.34173 5.4889 5.27015 5.65889 5.26807 5.83675V9.68279C5.27015 9.86065 5.34173 10.0306 5.4675 10.1564C5.59328 10.2822 5.76326 10.3538 5.94112 10.3558H9.79517C9.97303 10.3538 10.143 10.2822 10.2688 10.1564C10.3946 10.0306 10.4661 9.86065 10.4682 9.68279V5.83675C10.4661 5.65889 10.3946 5.4889 10.2688 5.36313C10.143 5.23736 9.97303 5.16578 9.79517 5.1637H5.94112Z" fill="white"/>
</mask>
<g mask="url(#mask9_1677_329)">
<path fill-rule="evenodd" clip-rule="evenodd" d="M5.94161 5.1637C5.76375 5.16578 5.59376 5.23736 5.46799 5.36313C5.34221 5.4889 5.27064 5.65889 5.26855 5.83675V9.68279C5.27064 9.86065 5.34221 10.0306 5.46799 10.1564C5.59376 10.2822 5.76375 10.3538 5.94161 10.3558H9.79566C9.97352 10.3538 10.1435 10.2822 10.2693 10.1564C10.3951 10.0306 10.4666 9.86065 10.4687 9.68279V5.83675C10.4666 5.65889 10.3951 5.4889 10.2693 5.36313C10.1435 5.23736 9.97352 5.16578 9.79566 5.1637H5.94161Z" fill="#566B76"/>
</g>
<mask id="mask10_1677_329" style="mask-type:luminance" maskUnits="userSpaceOnUse" x="7" y="0" width="4" height="5">
<path fill-rule="evenodd" clip-rule="evenodd" d="M9.84165 1.01319L8.23914 1.81445C8.16379 1.84565 8.0978 1.89581 8.04757 1.96006C7.99735 2.0243 7.96459 2.10045 7.9525 2.1811C7.9404 2.26175 7.94937 2.34415 7.97854 2.42031C8.0077 2.49646 8.05607 2.56378 8.11895 2.61571L10.0179 4.51469C10.2823 4.77109 10.4987 4.68295 10.4987 4.31438V1.42184C10.5054 1.36495 10.5001 1.30727 10.4832 1.25256C10.4662 1.19785 10.4379 1.14732 10.4001 1.10425C10.3623 1.06119 10.3159 1.02654 10.2639 1.00257C10.2118 0.978605 10.1553 0.965843 10.0981 0.965118C10.0209 0.966383 9.94464 0.982714 9.8737 1.01319" fill="white"/>
</mask>
<g mask="url(#mask10_1677_329)">
<path fill-rule="evenodd" clip-rule="evenodd" d="M9.84214 1.01319L8.23963 1.81445C8.16428 1.84565 8.09829 1.89581 8.04806 1.96006C7.99783 2.0243 7.96508 2.10045 7.95298 2.1811C7.94089 2.26175 7.94986 2.34415 7.97902 2.42031C8.00819 2.49646 8.05656 2.56378 8.11944 2.61571L10.0184 4.51469C10.2828 4.77109 10.4992 4.68295 10.4992 4.31438V1.42184C10.5059 1.36495 10.5006 1.30727 10.4836 1.25256C10.4667 1.19785 10.4384 1.14732 10.4006 1.10425C10.3628 1.06119 10.3164 1.02654 10.2644 1.00257C10.2123 0.978605 10.1558 0.965843 10.0985 0.965118C10.0213 0.966383 9.94513 0.982714 9.87419 1.01319" fill="#566B76"/>
</g>
<mask id="mask11_1677_329" style="mask-type:luminance" maskUnits="userSpaceOnUse" x="26" y="21" width="5" height="3">
<path fill-rule="evenodd" clip-rule="evenodd" d="M27.2546 21.0287C26.886 21.0287 26.7979 21.237 27.0543 21.5014L28.9613 23.4004C29.0144 23.4612 29.0819 23.5077 29.1577 23.5356C29.2335 23.5634 29.315 23.5717 29.3948 23.5598C29.4747 23.5478 29.5502 23.5159 29.6145 23.467C29.6787 23.4182 29.7297 23.3539 29.7626 23.2802L30.5638 21.6777C30.6016 21.6103 30.6199 21.5338 30.6167 21.4567C30.6135 21.3795 30.5889 21.3048 30.5457 21.2408C30.5024 21.1768 30.4423 21.1261 30.3719 21.0943C30.3016 21.0625 30.2237 21.0509 30.1472 21.0607H27.2546V21.0287Z" fill="white"/>
</mask>
<g mask="url(#mask11_1677_329)">
<path fill-rule="evenodd" clip-rule="evenodd" d="M27.2566 21.0287C26.888 21.0287 26.7999 21.237 27.0563 21.5014L28.9633 23.4004C29.0163 23.4612 29.0839 23.5077 29.1596 23.5356C29.2354 23.5634 29.317 23.5717 29.3968 23.5598C29.4766 23.5478 29.5522 23.5159 29.6164 23.467C29.6807 23.4182 29.7316 23.3539 29.7645 23.2802L30.5658 21.6777C30.6035 21.6103 30.6218 21.5338 30.6186 21.4567C30.6154 21.3795 30.5908 21.3048 30.5476 21.2408C30.5044 21.1768 30.4443 21.1261 30.3739 21.0943C30.3035 21.0625 30.2257 21.0509 30.1491 21.0607H27.2566V21.0287Z" fill="#566B76"/>
</g>
<mask id="mask12_1677_329" style="mask-type:luminance" maskUnits="userSpaceOnUse" x="5" y="21" width="6" height="6">
<path fill-rule="evenodd" clip-rule="evenodd" d="M5.94112 21.0287C5.764 21.0287 5.59401 21.0985 5.46801 21.223C5.34202 21.3475 5.27018 21.5167 5.26807 21.6938V25.5398C5.27015 25.7177 5.34173 25.8877 5.4675 26.0135C5.59328 26.1392 5.76326 26.2108 5.94112 26.2129H9.79517C9.97303 26.2108 10.143 26.1392 10.2688 26.0135C10.3946 25.8877 10.4661 25.7177 10.4682 25.5398V21.6938C10.4661 21.5167 10.3943 21.3475 10.2683 21.223C10.1423 21.0985 9.9723 21.0287 9.79517 21.0287H5.94112Z" fill="white"/>
</mask>
<g mask="url(#mask12_1677_329)">
<path fill-rule="evenodd" clip-rule="evenodd" d="M5.94161 21.0287C5.76449 21.0287 5.59449 21.0985 5.4685 21.223C5.3425 21.3475 5.27066 21.5167 5.26855 21.6938V25.5398C5.27064 25.7177 5.34221 25.8877 5.46799 26.0135C5.59376 26.1392 5.76375 26.2108 5.94161 26.2129H9.79566C9.97352 26.2108 10.1435 26.1392 10.2693 26.0135C10.3951 25.8877 10.4666 25.7177 10.4687 25.5398V21.6938C10.4666 21.5167 10.3948 21.3475 10.2688 21.223C10.1428 21.0985 9.97279 21.0287 9.79566 21.0287H5.94161Z" fill="#566B76"/>
</g>
<mask id="mask13_1677_329" style="mask-type:luminance" maskUnits="userSpaceOnUse" x="1" y="20" width="4" height="4">
<path fill-rule="evenodd" clip-rule="evenodd" d="M1.5182 21.0286C1.44161 21.0188 1.3638 21.0304 1.29343 21.0622C1.22306 21.094 1.16292 21.1447 1.1197 21.2087C1.07649 21.2727 1.05191 21.3474 1.0487 21.4246C1.04549 21.5017 1.06379 21.5782 1.10154 21.6456L1.9028 23.2481C1.934 23.3235 1.98416 23.3895 2.04841 23.4397C2.11265 23.4899 2.1888 23.5227 2.26945 23.5348C2.35009 23.5469 2.4325 23.5379 2.50866 23.5087C2.58481 23.4796 2.65213 23.4312 2.70406 23.3683L4.60304 21.4693C4.86746 21.2049 4.77932 20.9966 4.40273 20.9966H1.5182V21.0286Z" fill="white"/>
</mask>
<g mask="url(#mask13_1677_329)">
<path fill-rule="evenodd" clip-rule="evenodd" d="M1.5182 21.0286C1.44161 21.0188 1.3638 21.0304 1.29343 21.0622C1.22306 21.094 1.16292 21.1447 1.1197 21.2087C1.07649 21.2727 1.05191 21.3474 1.0487 21.4246C1.04549 21.5017 1.06379 21.5782 1.10154 21.6456L1.9028 23.2481C1.934 23.3235 1.98416 23.3895 2.04841 23.4397C2.11265 23.4899 2.1888 23.5227 2.26945 23.5348C2.35009 23.5469 2.4325 23.5379 2.50866 23.5087C2.58481 23.4796 2.65213 23.4312 2.70406 23.3683L4.60304 21.4693C4.86746 21.2049 4.77932 20.9966 4.40273 20.9966H1.5182V21.0286Z" fill="#566B76"/>
</g>
<mask id="mask14_1677_329" style="mask-type:luminance" maskUnits="userSpaceOnUse" x="21" y="5" width="6" height="6">
<path fill-rule="evenodd" clip-rule="evenodd" d="M21.8366 5.16364C21.6588 5.16572 21.4888 5.23729 21.363 5.36307C21.2372 5.48884 21.1657 5.65883 21.1636 5.83669V9.68273C21.1657 9.86059 21.2372 10.0306 21.363 10.1564C21.4888 10.2821 21.6588 10.3537 21.8366 10.3558H25.6907C25.8685 10.3537 26.0385 10.2821 26.1643 10.1564C26.2901 10.0306 26.3617 9.86059 26.3637 9.68273V5.83669C26.3617 5.65883 26.2901 5.48884 26.1643 5.36307C26.0385 5.23729 25.8685 5.16572 25.6907 5.16364H21.8366Z" fill="white"/>
</mask>
<g mask="url(#mask14_1677_329)">
<path fill-rule="evenodd" clip-rule="evenodd" d="M21.8371 5.16364C21.6593 5.16572 21.4893 5.23729 21.3635 5.36307C21.2377 5.48884 21.1661 5.65883 21.1641 5.83669V9.68273C21.1661 9.86059 21.2377 10.0306 21.3635 10.1564C21.4893 10.2821 21.6593 10.3537 21.8371 10.3558H25.6912C25.869 10.3537 26.039 10.2821 26.1648 10.1564C26.2906 10.0306 26.3621 9.86059 26.3642 9.68273V5.83669C26.3621 5.65883 26.2906 5.48884 26.1648 5.36307C26.039 5.23729 25.869 5.16572 25.6912 5.16364H21.8371Z" fill="#566B76"/>
</g>
<mask id="mask15_1677_329" style="mask-type:luminance" maskUnits="userSpaceOnUse" x="0" y="10" width="11" height="11">
<path fill-rule="evenodd" clip-rule="evenodd" d="M4.68224 10.9489L0.403527 15.2035C0.34078 15.2661 0.290994 15.3404 0.257024 15.4222C0.223053 15.504 0.205566 15.5917 0.205566 15.6803C0.205566 15.7689 0.223053 15.8566 0.257024 15.9384C0.290994 16.0202 0.34078 16.0945 0.403527 16.157L4.68224 20.4197C4.74477 20.4825 4.81907 20.5323 4.90089 20.5662C4.9827 20.6002 5.07041 20.6177 5.15899 20.6177C5.24758 20.6177 5.33529 20.6002 5.4171 20.5662C5.49891 20.5323 5.57321 20.4825 5.63574 20.4197L9.90645 16.157C9.96919 16.0945 10.019 16.0202 10.053 15.9384C10.0869 15.8566 10.1044 15.7689 10.1044 15.6803C10.1044 15.5917 10.0869 15.504 10.053 15.4222C10.019 15.3404 9.96919 15.2661 9.90645 15.2035L5.63574 10.9489C5.50706 10.824 5.33431 10.7549 5.15499 10.7566C4.97827 10.7561 4.80847 10.8252 4.68224 10.9489Z" fill="white"/>
</mask>
<g mask="url(#mask15_1677_329)">
<path fill-rule="evenodd" clip-rule="evenodd" d="M4.68224 10.9489L0.403527 15.2035C0.34078 15.2661 0.290994 15.3404 0.257024 15.4222C0.223053 15.504 0.205566 15.5917 0.205566 15.6803C0.205566 15.7689 0.223053 15.8566 0.257024 15.9384C0.290994 16.0202 0.34078 16.0945 0.403527 16.157L4.68224 20.4197C4.74477 20.4825 4.81907 20.5323 4.90089 20.5662C4.9827 20.6002 5.07041 20.6177 5.15899 20.6177C5.24758 20.6177 5.33529 20.6002 5.4171 20.5662C5.49891 20.5323 5.57321 20.4825 5.63574 20.4197L9.90645 16.157C9.96919 16.0945 10.019 16.0202 10.053 15.9384C10.0869 15.8566 10.1044 15.7689 10.1044 15.6803C10.1044 15.5917 10.0869 15.504 10.053 15.4222C10.019 15.3404 9.96919 15.2661 9.90645 15.2035L5.63574 10.9489C5.50706 10.824 5.33431 10.7549 5.15499 10.7566C4.97827 10.7561 4.80847 10.8252 4.68224 10.9489Z" fill="#566B76"/>
</g>
</svg>
