<svg width="79" height="24" viewBox="0 0 79 24" fill="none" xmlns="http://www.w3.org/2000/svg">
<g clip-path="url(#clip0_52_2)">
<path d="M0 1C0 0.447716 0.447715 0 1 0H24V24H1C0.447716 24 0 23.5523 0 23V1Z" fill="#E73879"/>
<path d="M12 16C14.2091 16 16 14.2091 16 12C16 9.79086 14.2091 8 12 8C9.79086 8 8 9.79086 8 12C8 14.2091 9.79086 16 12 16Z" fill="white"/>
<path d="M24 0.5H78C78.2761 0.5 78.5 0.723857 78.5 1V23C78.5 23.2761 78.2761 23.5 78 23.5H24V0.5Z" fill="white"/>
<path d="M24 0.5H78C78.2761 0.5 78.5 0.723857 78.5 1V23C78.5 23.2761 78.2761 23.5 78 23.5H24V0.5Z" stroke="#E73879"/>
<path d="M37.7469 10.7266C37.7137 10.4164 37.5741 10.175 37.3279 10.0021C37.084 9.82934 36.7668 9.74293 36.3762 9.74293C36.1015 9.74293 35.866 9.78436 35.6695 9.86722C35.473 9.95008 35.3227 10.0625 35.2185 10.2045C35.1143 10.3466 35.0611 10.5088 35.0587 10.6911C35.0587 10.8426 35.093 10.974 35.1617 11.0852C35.2327 11.1965 35.3286 11.2912 35.4493 11.3693C35.57 11.4451 35.7038 11.509 35.8506 11.5611C35.9974 11.6132 36.1453 11.657 36.2945 11.6925L36.9763 11.8629C37.2509 11.9268 37.5149 12.0133 37.7682 12.1222C38.0239 12.2311 38.2523 12.3684 38.4536 12.5341C38.6572 12.6998 38.8182 12.8999 38.9365 13.1342C39.0549 13.3686 39.1141 13.6432 39.1141 13.9581C39.1141 14.3842 39.0052 14.7595 38.7874 15.0838C38.5696 15.4058 38.2547 15.6579 37.8428 15.8402C37.4332 16.0201 36.9372 16.1101 36.3548 16.1101C35.789 16.1101 35.2978 16.0225 34.8811 15.8473C34.4668 15.6721 34.1425 15.4164 33.9081 15.0803C33.6761 14.7441 33.5506 14.3345 33.5317 13.8516H34.8279C34.8468 14.1049 34.9249 14.3156 35.0622 14.4837C35.1995 14.6518 35.3783 14.7772 35.5985 14.8601C35.821 14.9429 36.0696 14.9844 36.3442 14.9844C36.6307 14.9844 36.8816 14.9418 37.097 14.8565C37.3148 14.7689 37.4853 14.6482 37.6084 14.4943C37.7315 14.3381 37.7942 14.1558 37.7966 13.9474C37.7942 13.758 37.7386 13.6018 37.6297 13.4787C37.5208 13.3532 37.3681 13.2491 37.1716 13.1662C36.9775 13.081 36.7502 13.0052 36.4898 12.9389L35.6624 12.7259C35.0634 12.572 34.5899 12.3388 34.2419 12.0263C33.8963 11.7114 33.7235 11.2936 33.7235 10.7727C33.7235 10.3442 33.8395 9.96902 34.0715 9.64705C34.3058 9.32508 34.6243 9.07531 35.0267 8.89776C35.4292 8.71783 35.8849 8.62787 36.3939 8.62787C36.91 8.62787 37.3622 8.71783 37.7504 8.89776C38.1411 9.07531 38.4477 9.32271 38.6702 9.63994C38.8927 9.95481 39.0075 10.317 39.0146 10.7266H37.7469ZM42.1054 16H40.6991L43.2595 8.7273H44.8859L47.4498 16H46.0436L44.1011 10.2188H44.0443L42.1054 16ZM42.1515 13.1484H45.9868V14.2067H42.1515V13.1484ZM49.4078 16V8.7273H50.7252V14.8956H53.9284V16H49.4078ZM56.0718 16V8.7273H60.8019V9.83171H57.3893V11.8061H60.5569V12.9105H57.3893V14.8956H60.8303V16H56.0718ZM67.0985 10.7266C67.0653 10.4164 66.9256 10.175 66.6794 10.0021C66.4356 9.82934 66.1183 9.74293 65.7277 9.74293C65.4531 9.74293 65.2175 9.78436 65.021 9.86722C64.8245 9.95008 64.6742 10.0625 64.57 10.2045C64.4659 10.3466 64.4126 10.5088 64.4102 10.6911C64.4102 10.8426 64.4446 10.974 64.5132 11.0852C64.5843 11.1965 64.6801 11.2912 64.8009 11.3693C64.9216 11.4451 65.0554 11.509 65.2021 11.5611C65.3489 11.6132 65.4969 11.657 65.646 11.6925L66.3279 11.8629C66.6025 11.9268 66.8664 12.0133 67.1198 12.1222C67.3754 12.2311 67.6039 12.3684 67.8051 12.5341C68.0087 12.6998 68.1697 12.8999 68.2881 13.1342C68.4065 13.3686 68.4656 13.6432 68.4656 13.9581C68.4656 14.3842 68.3567 14.7595 68.1389 15.0838C67.9211 15.4058 67.6063 15.6579 67.1943 15.8402C66.7848 16.0201 66.2888 16.1101 65.7064 16.1101C65.1406 16.1101 64.6494 16.0225 64.2327 15.8473C63.8184 15.6721 63.4941 15.4164 63.2597 15.0803C63.0277 14.7441 62.9022 14.3345 62.8833 13.8516H64.1794C64.1984 14.1049 64.2765 14.3156 64.4138 14.4837C64.5511 14.6518 64.7298 14.7772 64.95 14.8601C65.1726 14.9429 65.4211 14.9844 65.6958 14.9844C65.9822 14.9844 66.2332 14.9418 66.4486 14.8565C66.6664 14.7689 66.8369 14.6482 66.96 14.4943C67.0831 14.3381 67.1458 14.1558 67.1482 13.9474C67.1458 13.758 67.0902 13.6018 66.9813 13.4787C66.8724 13.3532 66.7197 13.2491 66.5232 13.1662C66.329 13.081 66.1018 13.0052 65.8414 12.9389L65.0139 12.7259C64.415 12.572 63.9415 12.3388 63.5935 12.0263C63.2478 11.7114 63.075 11.2936 63.075 10.7727C63.075 10.3442 63.191 9.96902 63.423 9.64705C63.6574 9.32508 63.9758 9.07531 64.3783 8.89776C64.7807 8.71783 65.2365 8.62787 65.7455 8.62787C66.2616 8.62787 66.7137 8.71783 67.102 8.89776C67.4926 9.07531 67.7992 9.32271 68.0218 9.63994C68.2443 9.95481 68.3591 10.317 68.3662 10.7266H67.0985Z" fill="#E73879"/>
</g>
<defs>
<clipPath id="clip0_52_2">
<rect width="79" height="24" fill="white"/>
</clipPath>
</defs>
</svg>
