<svg width="124" height="24" viewBox="0 0 124 24" fill="none" xmlns="http://www.w3.org/2000/svg">
<path fill-rule="evenodd" clip-rule="evenodd" d="M30.8696 6.13576C29.6414 6.13281 28.4513 6.57452 27.5069 7.38376V6.26248H24.4395V18.5764H27.6298V10.7044C27.9727 10.245 28.4105 9.86983 28.9113 9.60617C29.4122 9.34251 29.9637 9.19691 30.5259 9.17992C30.961 9.15687 31.3963 9.22412 31.8058 9.37768V6.22024C31.4966 6.16435 31.1834 6.13609 30.8696 6.13576Z" fill="#566B76"/>
<path fill-rule="evenodd" clip-rule="evenodd" d="M3.0541 14.8187C3.96509 15.6125 5.1214 16.0446 6.31435 16.0369C7.17319 16.0369 7.83549 15.6049 7.83549 14.9963C7.83549 13.1425 2.06858 13.803 2.06858 9.84207C2.06858 7.48143 4.27716 6.00879 6.63292 6.00879C8.06347 6.01284 9.46186 6.44653 10.657 7.25679L9.16474 9.63855C8.50609 9.12344 7.70889 8.83102 6.88257 8.80143C5.9995 8.80143 5.26269 9.15663 5.26269 9.79119C5.26269 11.3905 11.0305 10.756 11.0305 15.0213C11.0305 17.3829 8.79494 18.8296 6.29386 18.8296C4.57049 18.8123 2.89607 18.2367 1.50781 17.1841L3.0541 14.8187Z" fill="#566B76"/>
<path fill-rule="evenodd" clip-rule="evenodd" d="M23.0782 12.3045C23.0782 8.87727 20.7495 6.00879 17.4576 6.00879C13.9235 6.00879 11.6655 9.00399 11.6655 12.4321C11.6304 13.2845 11.768 14.1349 12.0694 14.9295C12.3708 15.724 12.8294 16.4451 13.4161 17.0469C14.0027 17.6487 14.7046 18.118 15.4769 18.425C16.2492 18.7319 17.0751 18.8697 17.9019 18.8296C18.8217 18.8421 19.7334 18.6515 20.5758 18.2706C21.4182 17.8898 22.1717 17.3275 22.7858 16.6216L20.9693 14.7429C20.5889 15.1754 20.1277 15.5243 19.6132 15.7686C19.0987 16.0129 18.5417 16.1476 17.9755 16.1646C17.1799 16.1913 16.4043 15.9046 15.8066 15.3628C15.2089 14.821 14.834 14.0648 14.7581 13.2481H23.0047C23.0554 12.9364 23.08 12.6206 23.0782 12.3045ZM14.9053 10.8328C15.0197 10.2228 15.3375 9.67321 15.8036 9.27913C16.2697 8.88504 16.8547 8.67124 17.4576 8.67471C18.0384 8.67561 18.5988 8.89562 19.033 9.29321C19.4672 9.69081 19.7451 10.2385 19.8143 10.8328H14.9053Z" fill="#566B76"/>
<path fill-rule="evenodd" clip-rule="evenodd" d="M39.4113 13.7766L42.6753 6.26172H45.9896L40.5161 18.5756H38.3075L32.834 6.26172H36.1473L39.4113 13.7766Z" fill="#566B76"/>
<path fill-rule="evenodd" clip-rule="evenodd" d="M48.6666 0.48033C49.0703 0.487894 49.4628 0.618161 49.7948 0.854782C50.1269 1.0914 50.3838 1.42383 50.5332 1.81036C50.6826 2.19688 50.7179 2.62027 50.6347 3.0274C50.5514 3.43452 50.3534 3.80724 50.0653 4.09878C49.7773 4.39032 49.4121 4.58769 49.0157 4.66612C48.6192 4.74455 48.2091 4.70054 47.8368 4.53962C47.4645 4.3787 47.1466 4.10804 46.923 3.76161C46.6995 3.41517 46.5801 3.00839 46.5801 2.59233C46.58 2.31172 46.6342 2.03391 46.7396 1.77513C46.8449 1.51636 46.9992 1.28181 47.1934 1.08518C47.3877 0.88855 47.618 0.73379 47.871 0.629939C48.1239 0.526088 48.3944 0.475228 48.6666 0.48033Z" fill="#566B76"/>
<path d="M50.2627 6.26172H47.0723V18.5756H50.2627V6.26172Z" fill="#566B76"/>
<path fill-rule="evenodd" clip-rule="evenodd" d="M63.4527 16.0622C62.8486 16.9523 62.0375 17.6721 61.0936 18.1556C60.1497 18.6391 59.1033 18.871 58.05 18.8299C57.2189 18.8516 56.3919 18.7014 55.618 18.3882C54.8441 18.075 54.1389 17.6052 53.5442 17.0064C52.9495 16.4076 52.4772 15.6921 52.1553 14.9021C51.8333 14.112 51.6683 13.2635 51.6699 12.4067C51.6716 11.5498 51.8398 10.702 52.1647 9.91321C52.4896 9.12448 52.9646 8.41084 53.5616 7.81447C54.1586 7.21809 54.8655 6.75106 55.6406 6.44098C56.4156 6.1309 57.2432 5.98404 58.0742 6.00909C59.0353 6.0017 59.9854 6.21953 60.8528 6.64611C61.7202 7.0727 62.4821 7.69688 63.0811 8.47149L60.8231 10.5278C60.5082 10.0783 60.0956 9.71095 59.6183 9.45524C59.1409 9.19952 58.6122 9.06251 58.0742 9.05517C57.6465 9.05336 57.2228 9.14 56.8282 9.30996C56.4335 9.47992 56.076 9.72974 55.7767 10.0446C55.4774 10.3595 55.2424 10.7331 55.0857 11.1433C54.929 11.5534 54.8537 11.9918 54.8643 12.4324C54.8501 12.8797 54.9258 13.3252 55.0866 13.7409C55.2474 14.1566 55.4898 14.5336 55.7987 14.8482C56.1075 15.1628 56.4761 15.4082 56.8813 15.569C57.2865 15.7299 57.7196 15.8027 58.1534 15.7828C58.7203 15.7712 59.2759 15.6172 59.772 15.3341C60.2681 15.0511 60.6896 14.6475 61.0001 14.1585L63.4527 16.0622Z" fill="#566B76"/>
<path fill-rule="evenodd" clip-rule="evenodd" d="M75.0427 16.6206C74.4287 17.3266 73.6752 17.8889 72.8328 18.2697C71.9904 18.6506 71.0787 18.8411 70.1589 18.8286C69.3323 18.8683 68.5067 18.7302 67.7347 18.4231C66.9627 18.116 66.2612 17.6466 65.6749 17.0448C65.0885 16.4431 64.6301 15.7221 64.3289 14.9278C64.0277 14.1335 63.8902 13.2832 63.9253 12.4312C63.9253 9.00301 66.1832 6.00781 69.7173 6.00781C73.0055 6.00781 75.3371 8.87629 75.3371 12.3035C75.3391 12.6184 75.3145 12.9329 75.2635 13.2433H67.0169C67.0921 14.0602 67.4665 14.8167 68.0639 15.3591C68.6612 15.9015 69.4367 16.1888 70.2324 16.1627C70.7988 16.1456 71.3559 16.0108 71.8705 15.7665C72.3851 15.5222 72.8465 15.1734 73.2272 14.7409L75.0427 16.6206ZM72.0731 10.8328C72.0041 10.2385 71.7264 9.69088 71.2924 9.29327C70.8583 8.89567 70.298 8.67562 69.7173 8.67469C69.1144 8.67104 68.5293 8.88477 68.0632 9.27889C67.5971 9.673 67.2793 10.2227 67.165 10.8328H72.0731Z" fill="#566B76"/>
<path fill-rule="evenodd" clip-rule="evenodd" d="M76.6074 18.5762V6.26226H79.6749V7.25202C80.6196 6.44465 81.8093 6.00467 83.0366 6.00882C83.8229 6.00655 84.6001 6.18283 85.3128 6.52513C86.0255 6.86742 86.6563 7.36732 87.1604 7.9893C88.078 9.22108 88.5156 10.762 88.3872 12.3093V18.5762H85.1968V12.0482C85.2416 11.6331 85.2014 11.213 85.0788 10.815C84.9562 10.417 84.7539 10.0499 84.4851 9.73746C83.9993 9.27411 83.3553 9.0277 82.6938 9.05202C82.1318 9.0691 81.5804 9.21464 81.0796 9.47811C80.5787 9.74159 80.1409 10.1164 79.7978 10.5755V18.5762H76.6074Z" fill="#566B76"/>
<path fill-rule="evenodd" clip-rule="evenodd" d="M96.6004 6.00876C95.2006 6.00575 93.8322 6.43618 92.6726 7.24425C91.513 8.05232 90.6157 9.20076 90.097 10.5407C89.5783 11.8806 89.4621 13.3503 89.7635 14.759C90.0649 16.1678 90.77 17.4508 91.7874 18.4417C92.026 18.6759 92.3381 18.8143 92.6672 18.8319C92.9962 18.8495 93.3206 18.7452 93.5814 18.5377C94.4422 17.8776 95.4865 17.521 96.5595 17.521C97.6324 17.521 98.6767 17.8776 99.5375 18.5377C99.8008 18.7456 100.128 18.8491 100.459 18.8292C100.79 18.8093 101.104 18.6673 101.342 18.4292C102.351 17.442 103.052 16.1667 103.353 14.7666C103.655 13.3665 103.544 11.9055 103.034 10.5709C102.525 9.23631 101.64 8.08888 100.494 7.27572C99.3477 6.46256 97.9919 6.02072 96.6004 6.00684M96.5595 16.8001C96.0994 16.8129 95.6416 16.729 95.214 16.5535C94.7865 16.3779 94.3981 16.1144 94.0726 15.7791C93.7471 15.4437 93.4914 15.0435 93.3209 14.6029C93.1505 14.1624 93.0689 13.6906 93.0812 13.2164C93.0812 12.2657 93.4477 11.354 94.1 10.6817C94.7523 10.0095 95.637 9.6318 96.5595 9.6318C97.4819 9.6318 98.3666 10.0095 99.0189 10.6817C99.6712 11.354 100.038 12.2657 100.038 13.2164C100.05 13.6906 99.9684 14.1624 99.798 14.6029C99.6275 15.0435 99.3718 15.4437 99.0463 15.7791C98.7208 16.1144 98.3324 16.3779 97.9049 16.5535C97.4773 16.729 97.0195 16.8129 96.5595 16.8001Z" fill="#566B76"/>
<path fill-rule="evenodd" clip-rule="evenodd" d="M109.832 18.5756H107.455L102.717 6.26172H105.903L108.5 13.2985L111.048 6.26172H113.71L116.235 13.2985L118.855 6.26172H122.042L117.303 18.5756H114.927L112.379 11.5638L109.832 18.5756Z" fill="#566B76"/>
<path d="M122.076 17.1836H121.807V17.7049H121.578V16.2783H122.137C122.196 16.2781 122.254 16.2898 122.308 16.3127C122.362 16.3357 122.411 16.3695 122.452 16.4122C122.494 16.4548 122.527 16.5055 122.549 16.5613C122.571 16.6171 122.583 16.6769 122.582 16.7372C122.582 16.8266 122.555 16.9139 122.506 16.9877C122.457 17.0616 122.388 17.1187 122.307 17.1519L122.622 17.7078H122.373L122.076 17.1836ZM121.807 16.9734H122.137C122.199 16.9734 122.258 16.9481 122.302 16.9031C122.345 16.8581 122.37 16.797 122.37 16.7334C122.37 16.6697 122.345 16.6087 122.302 16.5637C122.258 16.5186 122.199 16.4934 122.137 16.4934H121.81L121.807 16.9734Z" fill="#566B76"/>
<path d="M122.045 15.6937C122.299 15.6935 122.548 15.7709 122.759 15.9163C122.97 16.0616 123.135 16.2683 123.233 16.5102C123.33 16.7521 123.355 17.0183 123.306 17.2752C123.257 17.532 123.134 17.768 122.955 17.9533C122.775 18.1385 122.546 18.2647 122.297 18.3158C122.048 18.367 121.789 18.3408 121.555 18.2407C121.32 18.1405 121.119 17.9708 120.978 17.7531C120.837 17.5354 120.761 17.2794 120.761 17.0175C120.762 16.6667 120.897 16.3304 121.138 16.0823C121.379 15.8342 121.705 15.6944 122.045 15.6937ZM122.045 15.4844C121.75 15.4844 121.462 15.5745 121.217 15.7432C120.972 15.912 120.781 16.1519 120.668 16.4326C120.555 16.7132 120.526 17.0221 120.583 17.32C120.641 17.618 120.783 17.8917 120.991 18.1065C121.2 18.3213 121.465 18.4676 121.754 18.5269C122.043 18.5861 122.343 18.5557 122.615 18.4395C122.888 18.3232 123.121 18.1263 123.284 17.8737C123.448 17.6211 123.535 17.3242 123.535 17.0204C123.535 16.613 123.378 16.2223 123.099 15.9343C122.819 15.6462 122.44 15.4844 122.045 15.4844Z" fill="#566B76"/>
</svg>
