<svg width="103" height="18" viewBox="0 0 103 18" fill="none" xmlns="http://www.w3.org/2000/svg">
<path d="M6.54166 0.28186C7.56417 0.28186 9.04398 0.482072 10.9796 0.882969V4.01704C9.53942 3.40504 8.20255 3.09967 6.96735 3.09967C5.22809 3.09967 4.35846 3.60777 4.35846 4.62604C4.35846 5.00673 4.53375 5.31715 4.88449 5.55779C5.17614 5.75263 5.98002 6.16395 7.29418 6.79332C9.18632 7.68732 10.446 8.46449 11.0737 9.12544C11.8185 9.90955 12.1915 10.924 12.1915 12.1675C12.1915 13.955 11.4608 15.3184 10.0001 16.2579C8.81689 17.0196 7.28246 17.399 5.39774 17.399C3.80632 17.399 2.20272 17.1997 0.588144 16.7988V13.5408C2.33126 14.1244 3.8737 14.4164 5.21548 14.4164C7.06813 14.4164 7.99446 13.8955 7.99446 12.8543C7.99446 12.4662 7.85969 12.1401 7.5894 11.876C7.31303 11.5957 6.60534 11.2074 5.4678 10.7099C3.42709 9.81734 2.0963 9.05596 1.47736 8.42643C0.674973 7.59511 0.273926 6.547 0.273926 5.28036C0.273926 3.6493 0.858428 2.40603 2.02654 1.55181C3.18174 0.704863 4.68604 0.28186 6.54166 0.28186ZM96.4514 0.28186C97.4946 0.28186 98.8467 0.458072 100.505 0.812232L100.888 0.882969V4.01704C99.4476 3.40504 98.1067 3.09967 96.8651 3.09967C95.1322 3.09967 94.2681 3.60777 94.2681 4.62604C94.2681 5.00673 94.4425 5.31715 94.7922 5.55779C95.0703 5.74521 95.8773 6.15668 97.2135 6.79332C99.0915 7.68732 100.349 8.46449 100.982 9.12544C101.728 9.90955 102.1 10.924 102.1 12.1675C102.1 13.955 101.373 15.3184 99.9199 16.2579C98.7296 17.0196 97.1914 17.399 95.3071 17.399C93.7139 17.399 92.1097 17.1997 90.4964 16.7988V13.5408C92.2249 14.1244 93.767 14.4164 95.1247 14.4164C96.9772 14.4164 97.9026 13.8955 97.9026 12.8543C97.9026 12.4662 97.7714 12.1401 97.51 11.876C97.2323 11.5957 96.5217 11.2074 95.3773 10.7099C93.3427 9.82476 92.0105 9.0637 91.3857 8.42643C90.5839 7.60253 90.1836 6.55047 90.1836 5.26915C90.1836 3.6452 90.7664 2.40603 91.9359 1.55181C93.0894 0.704863 94.5954 0.28186 96.4514 0.28186ZM42.6744 0.568583L46.5762 11.1095L50.5759 0.568583H55.9105V17.0657H51.8034V5.38535L47.2556 17.2332H44.5704L40.1101 5.38535V17.0657H37.0581V0.568583H42.6744ZM18.9694 0.56852V17.0656H14.6377V0.56852H18.9694ZM34.0517 0.568583V3.55249H27.1168V7.27757H33.1533V9.99922H27.1168V13.9142H34.2304V17.0657H22.942V0.568583H34.0517ZM70.9934 0.568583V3.55249H64.0591V7.27757H70.0954V9.99922H64.0591V13.9142H71.1733V17.0657H59.8839V0.568583H70.9934ZM79.0438 0.568583L84.3701 11.6121V0.568583H87.4213V17.0657H82.5434L77.0757 5.87356V17.0657H74.0235V0.568583H79.0438Z" fill="#566B76"/>
</svg>
