<svg width="121" height="28" viewBox="0 0 121 28" fill="none" xmlns="http://www.w3.org/2000/svg">
<g clip-path="url(#clip0_1677_444)">
<path fill-rule="evenodd" clip-rule="evenodd" d="M11.9407 3.57038V1.01959H0.472168V3.57038H4.40275V14.6617H7.95498V3.57038H11.9407ZM56.147 14.6617C56.0526 13.7556 55.9944 13.0562 55.9944 12.5835V7.99161C55.9944 6.0841 54.5977 4.89403 52.7452 4.89403C51.4025 4.91205 50.2325 5.51716 49.5893 6.57481C49.193 5.51716 48.0219 4.95018 46.9251 4.95018C45.6026 4.95018 44.4876 5.38469 43.8624 6.57481L43.7882 5.15793H40.539V14.6617H43.9016V8.93802C43.9016 8.63596 43.7691 7.01036 45.3195 7.01036C46.3581 7.01036 46.605 7.93657 46.605 8.84264V14.6617H49.9485V8.93802C49.9485 8.63596 49.8161 7.01036 51.3655 7.01036C52.405 7.01036 52.6498 7.93657 52.6498 8.84264V14.6617H56.147ZM39.7665 7.95459V5.06356C38.3115 5.04342 37.1955 5.51716 36.7621 6.97219L36.6868 5.15793H33.3232C33.3985 5.93261 33.3985 6.97219 33.3985 7.59531V14.6617H36.7621V10.5054C36.7621 8.93802 37.2157 7.97256 39.0681 7.93548C39.2938 7.93548 39.5206 7.93548 39.7665 7.95459ZM61.9417 4.89403C58.843 4.89403 56.821 6.61291 56.821 9.88117C56.821 13.2448 58.8621 14.9267 61.9417 14.9267C65.0215 14.9267 67.0623 13.2448 67.0623 9.88117C67.0623 6.61291 65.0401 4.89403 61.9417 4.89403ZM61.9417 6.89695C63.3586 6.89695 63.6233 8.35095 63.6233 9.84415C63.6233 11.5832 63.3212 12.9427 61.9417 12.9427C60.5616 12.9427 60.2602 11.5832 60.2602 9.84415C60.2602 8.33184 60.5249 6.8779 61.9417 6.8779V6.89695ZM22.2998 14.6617C22.2055 13.7556 22.1673 13.1123 22.1673 12.5835V7.99161C22.1673 6.0841 20.7504 4.89403 18.899 4.89403C18.332 4.89403 17.7831 4.98832 17.3115 5.19603C16.877 5.40374 16.4616 5.7047 16.1023 6.15933V1.01855H12.7387V14.6606H16.1023V8.93699C16.1023 8.63493 15.9699 7.00927 17.5193 7.00927C18.5769 7.00927 18.8047 7.93548 18.8047 8.84155V14.6606L22.2998 14.6617ZM32.5793 10.5616C32.5984 7.14179 31.5778 4.89403 27.7796 4.89403C24.7753 4.89403 22.9822 6.74537 22.9822 9.63638C22.9822 13.1897 24.2465 14.9267 27.9503 14.9267C29.1022 14.9267 30.1228 14.6617 30.8975 14.1329C31.7293 13.585 32.4097 12.716 32.504 11.5249H29.329C29.2347 12.3949 28.7261 12.9799 27.7235 12.9799C26.438 12.9799 26.1742 11.7517 26.1933 10.5616H32.5793ZM29.3672 8.73031H26.2505C26.3246 7.72886 26.5514 6.70829 27.7998 6.65216C28.3657 6.63203 28.7451 6.89695 28.9899 7.31345C29.2549 7.70981 29.3672 8.23863 29.3672 8.74834V8.73031Z" fill="#566B76"/>
<path fill-rule="evenodd" clip-rule="evenodd" d="M119.687 7.78614V4.89409C118.232 4.87501 117.117 5.34872 116.682 6.80374L116.607 5.15903H113.243C113.319 5.9337 113.319 6.97219 113.319 7.59748V14.6639H116.682V10.5054C116.682 8.93808 117.136 7.8041 118.987 7.76594C119.214 7.76594 119.442 7.766 119.687 7.78614ZM102.191 14.6639C102.097 13.7567 102.059 13.1134 102.059 12.5846V7.99276C102.059 6.08414 100.642 4.89409 98.7908 4.89409C98.224 4.89409 97.7122 4.98838 97.2413 5.19609C96.8072 5.4038 96.3532 5.70686 95.9938 6.16042V1.02069H92.6295V14.6628H95.9938V8.93808C95.9938 8.63499 95.8618 7.01036 97.4107 7.01036C98.4694 7.01036 98.6967 7.93663 98.6967 8.84378V14.6628H102.191V14.6639ZM91.8059 11.829C91.8059 10.3549 91.03 9.63753 89.9538 9.24117C87.9328 8.52158 86.42 8.48553 86.42 7.72777C86.42 7.16296 86.7414 6.84082 87.2883 6.84082C87.723 6.84082 88.0081 6.95314 88.1957 7.14282C88.3663 7.3325 88.4404 7.63348 88.4404 8.04997H91.6341C91.5594 5.55534 89.5944 4.89299 87.4396 4.89299C85.6067 4.89299 83.2252 5.53521 83.2252 7.82322C83.2252 11.1487 88.6099 10.2787 88.6099 12.0558C88.6099 12.679 88.101 12.9609 87.4396 12.9609C87.0616 12.9609 86.7583 12.7722 86.5708 12.5073C86.3809 12.2625 86.3061 11.9032 86.3634 11.5821H83.1522C83.0937 14.4159 85.1919 14.9267 87.5174 14.9267C89.6897 14.9288 91.8059 14.135 91.8059 11.829ZM112.489 10.5637C112.509 7.14282 111.488 4.89409 107.689 4.89409C104.685 4.89409 102.891 6.74543 102.891 9.63747C102.891 13.1898 104.156 14.9288 107.86 14.9288C109.012 14.9288 110.032 14.6638 110.807 14.1351C111.638 13.5861 112.319 12.7171 112.413 11.527H109.24C109.145 12.3949 108.635 12.981 107.633 12.981C106.348 12.981 106.084 11.7538 106.102 10.5637H112.489ZM109.277 8.7314H106.16C106.234 7.72886 106.462 6.70944 107.71 6.65222C108.277 6.63311 108.654 6.89803 108.9 7.31345C109.165 7.71083 109.277 8.23971 109.277 8.74942V8.7314ZM82.2937 5.15903H78.93V14.6639H82.2937V5.15903ZM77.8839 3.53442L78.6779 1.02173H69.6401V14.6639H73.1925V9.2973H76.0625L76.8529 6.78468H73.1925V3.53545L77.8839 3.53442ZM82.2918 3.52698L83.0907 1.01855H79.7674L78.9691 3.52698H82.2918Z" fill="#566B76"/>
<path d="M32.5671 18.6589H31.3335V26.3929H32.5671V18.6589Z" fill="#566B76"/>
<path fill-rule="evenodd" clip-rule="evenodd" d="M114.377 26.5241C111.801 26.5241 109.873 25.0955 109.873 22.5839C109.873 20.0416 112.036 18.4965 114.457 18.4965C115.323 18.4965 116.276 18.7805 116.884 19.1747L116.253 19.9272C115.706 19.6262 115.116 19.4259 114.472 19.4206C113.547 19.4132 112.636 19.6908 112.021 20.3659C111.519 20.917 111.239 21.6291 111.239 22.6285C111.239 23.7137 111.573 24.3092 112.156 24.8857C112.747 25.4697 113.65 25.6297 114.538 25.6297C115.246 25.6297 115.946 25.3669 116.494 25.0775L117.095 25.8013C116.469 26.221 115.403 26.5241 114.377 26.5241Z" fill="#566B76"/>
<path d="M102.641 18.6589H101.406V26.3929H102.641V18.6589Z" fill="#566B76"/>
<path fill-rule="evenodd" clip-rule="evenodd" d="M73.5162 19.5841H70.6349V26.3929H69.4308V19.5841H66.5718V18.6589H73.6507L73.5162 19.5841Z" fill="#566B76"/>
<path fill-rule="evenodd" clip-rule="evenodd" d="M9.25807 26.1214C8.66883 26.4139 7.93128 26.557 7.07815 26.557C5.98342 26.557 4.87283 26.3143 3.94873 25.8597L4.46062 24.9843C5.35822 25.4316 6.21127 25.6329 7.1587 25.6329C7.77651 25.6329 8.18559 25.5259 8.56501 25.3192C9.00689 25.0776 9.24535 24.7469 9.24535 24.3198C9.24535 23.6745 8.74944 23.2707 7.55403 22.992L6.29501 22.6995C5.04344 22.407 4.25609 21.625 4.25609 20.7093C4.25609 19.3899 5.55215 18.4562 7.40035 18.4562C8.47813 18.4562 9.63001 18.7265 10.3676 19.1928L9.81125 20.0003C9.05561 19.5828 8.26825 19.3814 7.46498 19.3814C6.36598 19.3814 5.60406 19.8085 5.60406 20.5334C5.60406 21.0918 6.06819 21.4246 7.1502 21.6843L8.31275 21.9629C8.97295 22.1219 9.64279 22.4007 10.0243 22.7472C10.3878 23.0789 10.6251 23.6109 10.6251 24.1291C10.6262 24.9186 10.1207 25.6891 9.25807 26.1214Z" fill="#566B76"/>
<path fill-rule="evenodd" clip-rule="evenodd" d="M58.8007 26.394L55.7285 22.2684C55.152 21.4959 54.1792 19.9879 54.1792 19.9879C54.1792 19.9879 54.2884 21.2935 54.2968 22.438L54.3254 26.394H53.0972V18.6589H54.5606L57.6657 22.8703C58.2698 23.6916 59.1112 24.992 59.1112 24.992C59.1112 24.992 58.9278 23.5656 58.9183 22.5408L58.8908 18.6589H60.1075V26.394H58.8007Z" fill="#566B76"/>
<path d="M81.2272 18.6589H79.9937V26.3929H81.2272V18.6589Z" fill="#566B76"/>
<path fill-rule="evenodd" clip-rule="evenodd" d="M94.6745 19.5681H90.4335V21.8573H94.0215V22.7686H90.4335V26.3929H89.1987V18.6589H94.8391L94.6745 19.5681Z" fill="#566B76"/>
<path fill-rule="evenodd" clip-rule="evenodd" d="M40.5386 26.3929V18.6589H46.241L46.0768 19.5841H41.7731V21.8879H45.442V22.812H41.788V25.4233H46.3947V26.3929H40.5386Z" fill="#566B76"/>
<path fill-rule="evenodd" clip-rule="evenodd" d="M21.7984 26.5241C19.2211 26.5241 17.2944 25.0955 17.2944 22.5839C17.2944 20.0416 19.4574 18.4965 21.8778 18.4965C22.7437 18.4965 23.6975 18.7805 24.3047 19.1747L23.673 19.9272C23.1273 19.6262 22.5371 19.4259 21.8938 19.4206C20.9686 19.4132 20.0572 19.6908 19.4415 20.3659C18.9392 20.917 18.6594 21.6291 18.6594 22.6285C18.6594 23.7137 18.9942 24.3092 19.5772 24.8857C20.1685 25.4697 21.0714 25.6297 21.9584 25.6297C22.6663 25.6297 23.3668 25.3669 23.9157 25.0775L24.5156 25.8013C23.8893 26.221 22.8242 26.5241 21.7984 26.5241Z" fill="#566B76"/>
</g>
<defs>
<clipPath id="clip0_1677_444">
<rect width="120.584" height="27.1315" fill="white" transform="translate(0.190918 0.0943604)"/>
</clipPath>
</defs>
</svg>
