<svg width="94" height="38" viewBox="0 0 94 38" fill="none" xmlns="http://www.w3.org/2000/svg">
<path d="M4.28971 20.8802C6.87169 20.8802 8.56038 22.8809 8.56038 29.189C8.56038 35.4971 6.87781 37.4979 4.28971 37.4979C1.70162 37.4979 0.019043 35.4971 0.019043 29.189C0.019043 22.8809 1.70773 20.8802 4.28971 20.8802ZM3.21899 30.8777C3.21899 34.3346 3.62281 35.0321 4.29583 35.0321C4.96886 35.0321 5.37267 34.3407 5.37267 30.8777V27.5126C5.37267 24.0495 4.96886 23.3582 4.29583 23.3582C3.62281 23.3582 3.21899 24.0495 3.21899 27.5126V30.8777Z" fill="#566B76"/>
<path d="M11.5942 21.1921H14.5189V33.5758C14.5189 34.2916 14.6779 35.032 15.5345 35.032C16.3421 35.032 16.6114 34.3406 16.6114 33.5758V21.1921H19.0832V33.1903C19.0832 36.3352 17.6882 37.4977 15.3571 37.4977C13.026 37.4977 11.6065 36.3291 11.6065 33.1903V21.1921H11.5942Z" fill="#566B76"/>
<path d="M23.8843 23.6639H21.3696V21.1921H29.3175V23.6639H26.8028V37.1918H23.8782V23.6639H23.8843Z" fill="#566B76"/>
<path d="M31.7236 21.1921H38.2642V23.6639H34.6482V27.9346H37.322V30.5349H34.6482V37.1795H31.7236V21.1921Z" fill="#566B76"/>
<path d="M40.7739 21.1921H43.6985V37.1918H40.7739V21.1921Z" fill="#566B76"/>
<path d="M48.5044 23.6639H45.9897V21.1921H53.9376V23.6639H51.4229V37.1918H48.4983V23.6639H48.5044Z" fill="#566B76"/>
<path d="M57.6919 23.6639H55.1772V21.1921H63.1251V23.6639H60.6104V37.1918H57.6858V23.6639H57.6919Z" fill="#566B76"/>
<path d="M65.5312 21.1921H72.133V23.6639H68.4497V27.7572H71.1663V30.3636H68.4497V34.7199H72.2921V37.1918H65.5312V21.1921Z" fill="#566B76"/>
<path d="M75.1209 21.1921H78.4003C81.1842 21.1921 83.0259 22.3607 83.0259 25.7258C83.0259 27.0719 82.6221 28.8707 81.3188 29.6355L83.0504 37.1795H80.1074L78.7369 30.3085H78.0394V37.1795H75.1147V21.1921H75.1209ZM78.0455 27.9713H78.6328C79.7097 27.9713 80.1135 26.8945 80.1135 25.7503C80.1135 24.0188 79.4833 23.5293 78.4921 23.5293H78.0394V27.9774L78.0455 27.9713Z" fill="#566B76"/>
<path d="M87.953 32.5603C87.953 33.4598 87.953 35.0322 89.2073 35.0322C90.174 35.0322 90.5105 34.1328 90.5105 33.4842C90.5105 30.633 85.2119 29.9784 85.2119 25.2366C85.2119 22.8381 86.5213 20.8802 88.9931 20.8802C91.6179 20.8802 92.6336 22.881 92.6948 25.7505H90.0883C90.0883 24.8572 90.0883 23.3521 88.9197 23.3521C88.2222 23.3521 87.8184 23.9395 87.8184 24.8083C87.8184 27.5249 93.1169 28.4488 93.1169 33.0988C93.1169 35.5461 91.7219 37.504 89.0971 37.504C85.9706 37.504 85.3465 34.763 85.3465 32.5665H87.953V32.5603Z" fill="#566B76"/>
<path d="M20.9199 0.0777283H23.8445V12.4614C23.8445 13.1773 24.0036 13.9176 24.8602 13.9176C25.7168 13.9176 25.937 13.2262 25.937 12.4614V0.0777283H28.4089V12.076C28.4089 15.2209 27.0139 16.3834 24.6828 16.3834C22.3516 16.3834 20.9199 15.2147 20.9199 12.076V0.0777283Z" fill="#566B76"/>
<path d="M31.8599 0.0770874H35.1393C37.9232 0.0770874 39.7649 1.24571 39.7649 4.61085C39.7649 5.9569 39.3611 7.75572 38.0578 8.52052L39.7894 16.0646H36.8464L35.4759 9.19355H34.7845V16.0646H31.8599V0.0770874ZM34.7845 6.85631H35.3657C36.4426 6.85631 36.8464 5.77947 36.8464 4.63532C36.8464 2.9038 36.2162 2.41433 35.225 2.41433H34.7722V6.86243L34.7845 6.85631Z" fill="#566B76"/>
<path d="M42.6919 0.0770874H46.2834C48.0822 0.0770874 50.2359 1.06827 50.2359 4.12137C50.2359 5.92019 49.4283 7.30907 47.6356 7.68842V7.73736C49.6363 8.2146 50.5541 9.59737 50.5541 11.6226C50.5541 14.5472 48.5778 16.0707 46.4241 16.0707H42.698V0.0770874H42.6919ZM45.6165 6.64216C47.0727 6.64216 47.4582 5.96914 47.4582 4.53131C47.4582 2.71413 47.0788 2.39598 45.6165 2.42045V6.64216ZM45.6165 13.7396C47.3725 13.7396 47.6356 13.0482 47.6356 11.3778C47.6356 9.92165 47.2746 9.08954 45.6165 9.10789V13.7396Z" fill="#566B76"/>
<path d="M54.9567 0.0770874H59.1784L61.1546 16.0707H58.3463L57.918 12.522H55.5563L55.1525 16.0707H52.7051L54.9567 0.0770874ZM56.8167 2.54894H56.7677L55.85 10.1847H57.6671L56.8105 2.54894H56.8167Z" fill="#566B76"/>
<path d="M63.8059 0.0770874H66.6571L69.3309 8.52664H69.3798V0.0770874H71.7171V16.0768H69.4471L66.3206 6.39743H66.2717V16.0768H63.7998V0.0770874H63.8059Z" fill="#566B76"/>
</svg>
